<svg xmlns="http://www.w3.org/2000/svg" width="24" height="24" viewBox="0 0 24 24"><rect x="0.04" y="0.04" width="24" height="24" style="fill:none"/><path d="M22.05,19.2h0c-.93-.69-2.47-6.1-3.42-12a6.78,6.78,0,0,0-5.12-4.92,1.49,1.49,0,0,0-2.91-.13A6.91,6.91,0,0,0,4.77,7.47C4.15,13.2,2.89,18.5,2,19.2H2A.9.9,0,1,0,2,21H9.17a3,3,0,0,0,5.66,0h7.22a.9.9,0,1,0,0-1.79Zm-7.34-6.49-4,4a1,1,0,0,1-1.42,0,1,1,0,0,1,0-1.42L11.59,13H9a1,1,0,0,1-.92-.62,1,1,0,0,1,.21-1.09l4-4a1,1,0,1,1,1.42,1.42L11.41,11H14a1,1,0,0,1,.92.62A1,1,0,0,1,14.71,12.71Z" style="fill:#FA4338"/></svg>
