<svg width="2168" height="755" viewBox="0 0 2168 755" fill="none" xmlns="http://www.w3.org/2000/svg">
<mask id="mask0_2507_21965" style="mask-type:alpha" maskUnits="userSpaceOnUse" x="1811" y="0" width="358" height="485">
<path d="M2168.11 0H1811V484.01H2168.11V0Z" fill="#FAFAFA"/>
</mask>
<g mask="url(#mask0_2507_21965)">
<path d="M2168.11 0H1811V484.01H2168.11V0Z" fill="#FAFAFA"/>
<path d="M1886.16 157.638C1886.16 157.638 1918.52 282.945 1991.5 282.945C2064.47 282.945 2096.82 157.638 2096.82 157.638" stroke="#EDEDED" strokeWidth="2.23194" strokeMiterlimit="10"/>
<path d="M1750.74 282.934C1823.73 282.934 1856.1 157.638 1856.1 157.638" stroke="#EDEDED" strokeWidth="2.23194" strokeMiterlimit="10"/>
<path d="M1750.74 295.469H2233.24" stroke="#EDEDED" strokeWidth="2.23194" strokeMiterlimit="10"/>
<path d="M1841.02 199.492V295.514" stroke="#EDEDED" strokeWidth="2.23194" strokeMiterlimit="10"/>
<path d="M1825.98 228.622V295.514" stroke="#EDEDED" strokeWidth="2.23194" strokeMiterlimit="10"/>
<path d="M1810.93 249.935V295.514" stroke="#EDEDED" strokeWidth="2.23194" strokeMiterlimit="10"/>
<path d="M2081.78 199.492V295.514" stroke="#EDEDED" strokeWidth="2.23194" strokeMiterlimit="10"/>
<path d="M2066.72 228.622V295.514" stroke="#EDEDED" strokeWidth="2.23194" strokeMiterlimit="10"/>
<path d="M2051.68 249.935V295.514" stroke="#EDEDED" strokeWidth="2.23194" strokeMiterlimit="10"/>
<path d="M2036.64 266.462V295.514" stroke="#EDEDED" strokeWidth="2.23194" strokeMiterlimit="10"/>
<path d="M1901.21 199.492V295.514" stroke="#EDEDED" strokeWidth="2.23194" strokeMiterlimit="10"/>
<path d="M1916.26 228.622V295.514" stroke="#EDEDED" strokeWidth="2.23194" strokeMiterlimit="10"/>
<path d="M1931.3 249.935V295.514" stroke="#EDEDED" strokeWidth="2.23194" strokeMiterlimit="10"/>
<path d="M1946.36 266.462V295.514" stroke="#EDEDED" strokeWidth="2.23194" strokeMiterlimit="10"/>
<path d="M2127.91 157.638C2127.91 157.638 2160.28 282.945 2233.24 282.945" stroke="#EDEDED" strokeWidth="2.23194" strokeMiterlimit="10"/>
<path d="M2142.96 199.492V295.514" stroke="#EDEDED" strokeWidth="2.23194" strokeMiterlimit="10"/>
<path d="M2158.01 228.622V295.514" stroke="#EDEDED" strokeWidth="2.23194" strokeMiterlimit="10"/>
<path d="M1886.16 157.627H1856.06V416.996H1886.16V157.627Z" fill="#EDEDED"/>
<path d="M1881.15 185.195V208.158H1861.06V185.195C1861.06 182.533 1862.12 179.98 1864 178.098C1865.89 176.216 1868.44 175.158 1871.11 175.158C1873.77 175.158 1876.32 176.216 1878.21 178.098C1880.09 179.98 1881.15 182.533 1881.15 185.195Z" fill="#FAFAFA"/>
<path d="M1881.15 237.823V416.996H1861.06V237.823C1861.06 235.161 1862.12 232.608 1864 230.726C1865.89 228.843 1868.44 227.786 1871.11 227.786C1873.77 227.786 1876.32 228.843 1878.21 230.726C1880.09 232.608 1881.15 235.161 1881.15 237.823Z" fill="#FAFAFA"/>
<path d="M2126.92 157.627H2096.82V416.996H2126.92V157.627Z" fill="#EDEDED"/>
<path d="M2121.9 185.196V208.158H2101.81V185.196C2101.81 182.534 2102.87 179.981 2104.75 178.098C2106.64 176.216 2109.19 175.158 2111.85 175.158C2114.52 175.158 2117.07 176.216 2118.96 178.098C2120.84 179.981 2121.9 182.534 2121.9 185.196Z" fill="#FAFAFA"/>
<path d="M2121.9 237.823V416.996H2101.81V237.823C2101.81 235.161 2102.87 232.608 2104.75 230.726C2106.64 228.843 2109.19 227.786 2111.85 227.786C2114.52 227.786 2117.07 228.843 2118.96 230.726C2120.84 232.608 2121.9 235.161 2121.9 237.823Z" fill="#FAFAFA"/>
<path d="M2073.1 169.827V369.03H2025.89V169.827H2037.16V128.497H2061.81V169.827H2073.1Z" fill="#EDEDED"/>
<path d="M1973.96 21.1895V72.3005" stroke="#F0F0F0" strokeWidth="1.67395" strokeLinecap="round" strokeLinejoin="round"/>
<path d="M2005.44 70.2148H1942.5V366.342H2005.44V70.2148Z" fill="#EDEDED"/>
<path d="M2045.82 183.589H2039.27V209.797H2045.82V183.589Z" fill="white"/>
<path d="M2045.82 217.135H2039.27V243.343H2045.82V217.135Z" fill="white"/>
<path d="M2059.72 183.589H2053.17V209.797H2059.72V183.589Z" fill="white"/>
<path d="M2049.49 293.395H1986.55V508.077H2049.49V293.395Z" fill="#EDEDED"/>
<path d="M1973.96 204.555V86.8875" stroke="white" strokeWidth="2.23194" strokeLinecap="round" strokeLinejoin="round"/>
<path d="M1986.55 246.499V86.8875" stroke="white" strokeWidth="2.23194" strokeLinecap="round" strokeLinejoin="round"/>
<path d="M1961.38 86.8875V204.555" stroke="white" strokeWidth="2.23194" strokeLinecap="round" strokeLinejoin="round"/>
<path d="M2006.49 309.967H1999.93V336.175H2006.49V309.967Z" fill="white"/>
<path d="M2006.49 343.514H1999.93V369.722H2006.49V343.514Z" fill="white"/>
<path d="M2006.49 377.06H1999.93V403.267H2006.49V377.06Z" fill="white"/>
<path d="M1923.61 257.752V600.016H1986.55V257.752H1970.82V218.44H1939.35V257.752H1923.61Z" fill="white"/>
<path d="M1970.39 276.421H1963.84V302.629H1970.39V276.421Z" fill="#EEEEEE"/>
<path d="M1970.39 309.967H1963.84V336.175H1970.39V309.967Z" fill="#EEEEEE"/>
<path d="M1970.39 343.514H1963.84V369.722H1970.39V343.514Z" fill="#EEEEEE"/>
<path d="M1956.5 276.421H1949.95V302.629H1956.5V276.421Z" fill="#EEEEEE"/>
<path d="M1903.83 344.149H1840.88V623.514H1903.83V344.149Z" fill="#EDEDED"/>
<path d="M1872.35 606.741V361.39" stroke="white" strokeWidth="2.23194" strokeLinecap="round" strokeLinejoin="round"/>
<path d="M1859.76 606.741V361.39" stroke="white" strokeWidth="2.23194" strokeLinecap="round" strokeLinejoin="round"/>
<path d="M1884.93 361.39V606.741" stroke="white" strokeWidth="2.23194" strokeLinecap="round" strokeLinejoin="round"/>
<path d="M2145.12 344.606H2082.18V623.972H2145.12V344.606Z" fill="#EDEDED"/>
<path d="M2113.64 607.198V361.848" stroke="white" strokeWidth="2.23194" strokeLinecap="round" strokeLinejoin="round"/>
<path d="M2101.05 607.198V361.848" stroke="white" strokeWidth="2.23194" strokeLinecap="round" strokeLinejoin="round"/>
<path d="M2126.23 361.848V607.198" stroke="white" strokeWidth="2.23194" strokeLinecap="round" strokeLinejoin="round"/>
<path d="M1859.8 478.378H1853.25V504.586H1859.8V478.378Z" fill="#EEEEEE"/>
</g>
<rect x="514" width="357.11" height="484.331" fill="#FAFAFA"/>
<mask id="mask1_2507_21965" style="mask-type:alpha" maskUnits="userSpaceOnUse" x="537" y="0" width="335" height="485">
<rect x="537.041" width="334.071" height="484.331" fill="#F6F6F9"/>
</mask>
<g mask="url(#mask1_2507_21965)">
<path d="M566.445 243.806H523.035V503.893H566.445V243.806Z" fill="#EDEDED"/>
<path d="M730.291 -124.395H639.998V218.768H730.291V-124.395Z" fill="#EDEDED"/>
<path d="M566.44 103.611V292.003H618.536V103.611H606.096V58.8726H578.89V103.611H566.44Z" fill="#EDEDED"/>
<path d="M603.78 118.52H596.545V146.894H603.78V118.52Z" fill="white"/>
<path d="M603.78 154.839H596.545V183.214H603.78V154.839Z" fill="white"/>
<path d="M588.44 118.52H581.205V146.894H588.44V118.52Z" fill="white"/>
<path d="M661.95 192.667H592.493V393.06H661.95V192.667Z" fill="#EDEDED"/>
<path d="M618.537 271.046H566.444V503.029H618.537V271.046Z" fill="white"/>
<path d="M599.436 342.988C599.558 342.988 599.678 342.963 599.791 342.914C599.903 342.866 600.006 342.794 600.092 342.704C600.178 342.613 600.246 342.506 600.293 342.388C600.339 342.27 600.363 342.143 600.363 342.016V295.802C600.355 295.55 600.253 295.312 600.081 295.137C599.908 294.962 599.677 294.864 599.437 294.864C599.197 294.864 598.966 294.962 598.793 295.137C598.62 295.312 598.519 295.55 598.511 295.802V342.016C598.511 342.143 598.535 342.27 598.581 342.388C598.627 342.506 598.696 342.613 598.781 342.703C598.867 342.793 598.97 342.865 599.082 342.914C599.194 342.963 599.315 342.988 599.436 342.988Z" fill="#EDEDED"/>
<path d="M585.547 452.837C585.792 452.837 586.028 452.734 586.202 452.552C586.376 452.369 586.473 452.122 586.473 451.864V295.802C586.473 295.544 586.376 295.297 586.202 295.115C586.028 294.932 585.792 294.83 585.547 294.83C585.301 294.83 585.065 294.932 584.892 295.115C584.718 295.297 584.62 295.544 584.62 295.802V451.864C584.62 452.122 584.718 452.369 584.892 452.552C585.065 452.734 585.301 452.837 585.547 452.837Z" fill="#EDEDED"/>
<path d="M730.292 146.733V503.029H660.835V146.733H678.2V105.809H712.927V146.733H730.292Z" fill="white"/>
<path d="M685.896 173H678.662V203.368H685.896V173Z" fill="#EDEDED"/>
<path d="M685.896 211.873H678.662V242.241H685.896V211.873Z" fill="#EDEDED"/>
<path d="M685.896 250.744H678.662V281.114H685.896V250.744Z" fill="#EDEDED"/>
<path d="M701.235 172.999H694V203.368H701.235V172.999Z" fill="#EDEDED"/>
<path d="M732.098 499.842V193.378H817.232V499.842H732.098Z" fill="#EDEDED"/>
<path d="M848.56 486.261V-3.0603H765.061V486.261H848.56Z" fill="#EDEDED"/>
<path d="M922.445 108.625V484.01H847.675V108.625H859.715V72.7219H872.386V33.457H897.732V72.7219H910.406V108.625H922.445Z" fill="#EDEDED"/>
<path d="M811.384 178.844V503.03H886.396V178.844H811.384Z" fill="white"/>
<path d="M838.89 404.824C838.535 404.824 838.195 404.676 837.945 404.413C837.694 404.15 837.554 403.793 837.554 403.421V206.471C837.542 206.28 837.568 206.088 837.629 205.907C837.691 205.727 837.787 205.561 837.912 205.421C838.037 205.281 838.188 205.17 838.356 205.094C838.523 205.017 838.704 204.978 838.887 204.978C839.069 204.978 839.25 205.017 839.418 205.094C839.585 205.17 839.736 205.281 839.861 205.421C839.986 205.561 840.083 205.727 840.144 205.907C840.206 206.088 840.232 206.28 840.22 206.471V403.424C840.219 403.794 840.079 404.15 839.83 404.412C839.581 404.674 839.243 404.822 838.89 404.824Z" fill="#EDEDED"/>
<path d="M858.891 404.824C858.537 404.824 858.197 404.676 857.946 404.413C857.696 404.15 857.555 403.793 857.555 403.421V206.471C857.555 206.099 857.696 205.742 857.946 205.479C858.197 205.216 858.537 205.069 858.891 205.069C859.246 205.069 859.585 205.216 859.836 205.479C860.086 205.742 860.227 206.099 860.227 206.471V403.424C860.226 403.795 860.086 404.151 859.835 404.414C859.585 404.676 859.245 404.824 858.891 404.824Z" fill="#EDEDED"/>
<path d="M790.228 20.6318H782.992V51.0014H790.228V20.6318Z" fill="white"/>
<path d="M790.228 59.5061H782.992V89.8747H790.228V59.5061Z" fill="white"/>
<path d="M790.228 98.3792H782.992V128.748H790.228V98.3792Z" fill="white"/>
</g>
<path d="M355.994 0H0V484.01H355.994V0Z" fill="#FAFAFA"/>
<mask id="mask2_2507_21965" style="mask-type:alpha" maskUnits="userSpaceOnUse" x="0" y="0" width="358" height="485">
<path d="M357.11 0H0V484.01H357.11V0Z" fill="#FAFAFA"/>
</mask>
<g mask="url(#mask2_2507_21965)">
<path d="M527.725 289.548H-65.3629V505.405H527.725V289.548Z" fill="#EDEDED"/>
<path d="M363.188 247.12H296.95V505.416H363.188V247.12Z" fill="#EDEDED"/>
<path d="M309.591 84.6797H229.961V490.786H309.591V84.6797Z" fill="#EDEDED"/>
<path d="M197.437 121.937C197.572 121.946 197.707 121.928 197.834 121.884C197.961 121.84 198.079 121.772 198.18 121.682C198.281 121.592 198.364 121.483 198.423 121.36C198.482 121.238 198.517 121.105 198.525 120.969V74.7682C198.525 74.4765 198.411 74.1967 198.207 73.9904C198.003 73.7841 197.726 73.6682 197.437 73.6682C197.149 73.6682 196.872 73.7841 196.668 73.9904C196.464 74.1967 196.35 74.4765 196.35 74.7682V120.969C196.358 121.105 196.393 121.238 196.452 121.36C196.511 121.483 196.594 121.592 196.695 121.682C196.796 121.772 196.913 121.84 197.041 121.884C197.168 121.928 197.303 121.946 197.437 121.937Z" fill="#EDEDED"/>
<path d="M162.386 182.736V488.718H232.486V182.736H221.195V153.464H209.315V121.464H185.557V153.464H173.678V182.736H162.386Z" fill="#EDEDED"/>
<path d="M252.744 236.362H181.208V505.416H252.744V236.362Z" fill="white"/>
<path d="M226.502 423.905C226.661 423.912 226.82 423.888 226.969 423.833C227.118 423.778 227.255 423.695 227.373 423.586C227.49 423.478 227.585 423.347 227.652 423.202C227.719 423.056 227.757 422.899 227.764 422.739V259.286C227.724 258.974 227.572 258.687 227.338 258.479C227.104 258.271 226.803 258.157 226.492 258.157C226.18 258.157 225.879 258.271 225.645 258.479C225.411 258.687 225.259 258.974 225.219 259.286V422.739C225.227 422.9 225.267 423.059 225.336 423.205C225.405 423.352 225.502 423.483 225.621 423.591C225.741 423.699 225.88 423.783 226.031 423.837C226.182 423.89 226.342 423.914 226.502 423.905Z" fill="#EDEDED"/>
<path d="M207.433 423.905C207.592 423.912 207.75 423.888 207.899 423.833C208.049 423.779 208.186 423.695 208.303 423.586C208.42 423.478 208.515 423.347 208.582 423.202C208.65 423.056 208.688 422.899 208.695 422.739V259.286C208.665 258.967 208.519 258.67 208.285 258.454C208.05 258.238 207.745 258.118 207.427 258.118C207.11 258.118 206.804 258.238 206.57 258.454C206.336 258.67 206.189 258.967 206.16 259.286V422.739C206.167 422.9 206.206 423.058 206.274 423.205C206.341 423.351 206.437 423.482 206.556 423.59C206.674 423.699 206.813 423.782 206.963 423.836C207.114 423.89 207.273 423.914 207.433 423.905Z" fill="#EDEDED"/>
<path d="M170.743 302.506H100.437V484.01H170.743V302.506Z" fill="white"/>
<path d="M130.078 321.02H120.363V350.885H130.078V321.02Z" fill="#EDEDED"/>
<path d="M130.078 359.256H120.363V389.122H130.078V359.256Z" fill="#EDEDED"/>
<path d="M150.658 321.02H140.943V350.885H150.658V321.02Z" fill="#EDEDED"/>
<path d="M258.91 104.348H252.013V129.549H258.91V104.348Z" fill="white"/>
<path d="M258.91 136.601H252.013V161.802H258.91V136.601Z" fill="white"/>
<path d="M258.91 168.864H252.013V194.066H258.91V168.864Z" fill="white"/>
<path d="M82.6263 200.27V356.616H32.934V200.27H44.8023V163.133H70.7472V200.27H82.6263Z" fill="#EDEDED"/>
</g>
<g clip-path="url(#clip0_2507_21965)">
<path d="M41.9044 76.5948C38.8244 76.3857 30.0863 76.2098 26.9504 80.6758C26.9033 80.7439 26.8401 80.7996 26.7662 80.8381C26.6923 80.8766 26.61 80.8967 26.5264 80.8967C26.4428 80.8967 26.3605 80.8766 26.2866 80.8381C26.2127 80.7996 26.1494 80.7439 26.1023 80.6758C22.7544 75.9347 13.1347 76.4187 10.6461 76.6278C10.4832 76.6414 10.3314 76.7143 10.22 76.8322C10.1086 76.9501 10.0457 77.1047 10.0435 77.2658V77.7828C10.0282 78.0728 10.13 78.357 10.3265 78.5734C10.523 78.7898 10.7984 78.9208 11.0925 78.9378C18.2012 79.5428 23.3682 86.1649 25.4997 89.344C25.6113 89.512 25.7637 89.6499 25.9429 89.7453C26.1221 89.8408 26.3227 89.8907 26.5264 89.8907C26.7301 89.8907 26.9306 89.8408 27.1098 89.7453C27.2891 89.6499 27.4414 89.512 27.5531 89.344C29.6511 86.1649 34.8403 79.5428 41.9491 78.9378C42.2432 78.9208 42.5185 78.7898 42.7151 78.5734C42.9116 78.357 43.0133 78.0728 42.9981 77.7828C43.0103 77.6329 42.9912 77.4822 42.942 77.3399C42.8929 77.1976 42.8146 77.0667 42.7121 76.9554C42.6096 76.8441 42.4851 76.7546 42.3462 76.6926C42.2073 76.6306 42.0569 76.5973 41.9044 76.5948Z" fill="#EDEDED"/>
<path d="M77.5714 108.991C74.4914 108.771 65.7421 108.605 62.6063 113.072C62.5592 113.14 62.4959 113.195 62.422 113.234C62.3481 113.272 62.2658 113.292 62.1822 113.292C62.0986 113.292 62.0163 113.272 61.9424 113.234C61.8685 113.195 61.8052 113.14 61.7581 113.072C58.4102 108.33 48.7906 108.815 46.3019 109.024C46.1411 109.04 45.9919 109.114 45.8828 109.231C45.7737 109.349 45.7124 109.502 45.7105 109.662V110.146C45.6952 110.436 45.797 110.72 45.9935 110.936C46.19 111.153 46.4654 111.284 46.7595 111.301C53.8682 111.906 59.0352 118.528 61.1555 121.696C61.2653 121.866 61.417 122.006 61.5965 122.104C61.776 122.201 61.9774 122.252 62.1822 122.252C62.387 122.252 62.5884 122.201 62.7679 122.104C62.9474 122.006 63.0991 121.866 63.2089 121.696C65.3181 118.528 70.5074 111.906 77.6161 111.301C77.9051 111.271 78.1725 111.136 78.3663 110.922C78.5602 110.709 78.6667 110.432 78.6651 110.146C78.6631 109.853 78.5496 109.572 78.347 109.358C78.1444 109.144 77.8675 109.013 77.5714 108.991Z" fill="#EDEDED"/>
<path d="M163.824 20.9888C160.744 20.7688 152.006 20.5928 148.859 25.0699C148.81 25.1358 148.746 25.1894 148.673 25.2264C148.599 25.2634 148.517 25.2826 148.435 25.2826C148.352 25.2826 148.27 25.2634 148.197 25.2264C148.123 25.1894 148.059 25.1358 148.011 25.0699C144.663 20.3288 135.043 20.8128 132.554 21.0218C132.394 21.038 132.244 21.112 132.135 21.2296C132.026 21.3473 131.965 21.5004 131.963 21.6598V22.1438C131.948 22.4338 132.049 22.718 132.246 22.9344C132.442 23.1508 132.718 23.2818 133.012 23.2988C140.121 23.9038 145.288 30.526 147.408 33.694C147.518 33.8644 147.669 34.0047 147.849 34.1019C148.028 34.1991 148.23 34.2501 148.435 34.2501C148.639 34.2501 148.841 34.1991 149.02 34.1019C149.2 34.0047 149.351 33.8644 149.461 33.694C151.57 30.526 156.76 23.9038 163.869 23.2988C164.158 23.2688 164.425 23.134 164.619 22.9206C164.813 22.7071 164.919 22.4303 164.918 22.1438C164.918 21.8504 164.805 21.5677 164.602 21.3531C164.399 21.1386 164.121 21.0083 163.824 20.9888Z" fill="#EDEDED"/>
</g>
<rect x="439.688" width="3.34791" height="342" fill="#C9CBD4"/>
<path d="M426.247 369.234C426.247 366.146 427.164 363.128 428.88 360.56C430.597 357.992 433.037 355.991 435.892 354.81C438.747 353.628 441.888 353.319 444.919 353.921C447.949 354.524 450.733 356.011 452.918 358.194C455.103 360.378 456.591 363.16 457.194 366.188C457.797 369.217 457.488 372.356 456.305 375.209C455.123 378.062 453.12 380.501 450.551 382.216C447.981 383.932 444.961 384.848 441.871 384.848C437.727 384.847 433.754 383.202 430.824 380.274C427.894 377.346 426.248 373.375 426.247 369.234Z" fill="#EBEBF0"/>
<path d="M395 369.234C395 369.234 409.425 335.777 441.313 335.777C473.2 335.777 487.625 369.234 487.625 369.234H395Z" fill="#21944E"/>
<rect x="908.859" width="3.34791" height="344" fill="#C9CBD4"/>
<path d="M896 371.377C896 368.289 896.916 365.271 898.633 362.703C900.35 360.136 902.79 358.134 905.645 356.953C908.499 355.771 911.641 355.462 914.672 356.064C917.702 356.667 920.486 358.154 922.671 360.337C924.856 362.521 926.344 365.303 926.947 368.331C927.55 371.36 927.24 374.499 926.058 377.352C924.875 380.205 922.873 382.644 920.304 384.359C917.734 386.075 914.714 386.991 911.624 386.991C907.48 386.99 903.507 385.345 900.577 382.417C897.647 379.489 896.001 375.518 896 371.377Z" fill="#EBEBF0"/>
<path d="M866 371.233C866 371.233 880.425 337.776 912.313 337.776C944.2 337.776 958.625 371.233 958.625 371.233H866Z" fill="#21944E"/>
<rect x="2052.86" width="3.34791" height="344" fill="#C9CBD4"/>
<path d="M2040 371.377C2040 368.289 2040.92 365.271 2042.63 362.703C2044.35 360.136 2046.79 358.134 2049.64 356.953C2052.5 355.771 2055.64 355.462 2058.67 356.064C2061.7 356.667 2064.49 358.154 2066.67 360.337C2068.86 362.521 2070.34 365.303 2070.95 368.331C2071.55 371.36 2071.24 374.499 2070.06 377.352C2068.88 380.205 2066.87 382.644 2064.3 384.359C2061.73 386.075 2058.71 386.991 2055.62 386.991C2051.48 386.99 2047.51 385.345 2044.58 382.417C2041.65 379.489 2040 375.518 2040 371.377Z" fill="#EBEBF0"/>
<path d="M2010 371.233C2010 371.233 2024.43 337.776 2056.31 337.776C2088.2 337.776 2102.63 371.233 2102.63 371.233H2010Z" fill="#21944E"/>
<path d="M949.871 584.872L925.583 649.853H854.999L879.305 584.776C881.167 579.785 886.092 576.457 891.607 576.465H943.804C945.933 576.461 947.93 577.456 949.155 579.13C950.379 580.804 950.678 582.947 949.955 584.872H949.873" fill="#3F4450"/>
<rect x="729.33" y="586.957" width="3.06581" height="30.5379" fill="#221B53"/>
<rect x="715.904" y="616.02" width="31.9558" height="2.9487" fill="#221B53"/>
<path d="M746.131 605.966H709.983C709.425 605.966 708.891 605.752 708.497 605.372C708.103 604.992 707.882 604.478 707.883 603.941C707.882 603.8 707.898 603.658 707.929 603.52L717.717 559.807C717.932 558.884 718.789 558.231 719.773 558.239H755.919C756.554 558.24 757.155 558.516 757.554 558.991C757.953 559.466 758.108 560.089 757.975 560.686L748.187 604.398C747.966 605.318 747.113 605.969 746.131 605.966Z" fill="#FA4338"/>
<path d="M743.001 600.289H713.297L721.877 563.886H751.597L743.001 600.289Z" fill="white"/>
<path d="M738.286 581.13H726.019C725.776 581.137 725.573 580.954 725.564 580.72L725.578 580.595L726.232 577.709C726.298 577.448 726.538 577.261 726.818 577.254H739.085C739.337 577.259 739.537 577.457 739.534 577.699L739.524 577.785L738.872 580.671C738.81 580.936 738.567 581.125 738.284 581.127" fill="#FA4338"/>
<path d="M741.745 574.222H727.814C726.638 574.321 725.601 573.485 725.498 572.354C725.395 571.224 726.265 570.227 727.441 570.127C727.565 570.118 727.69 570.118 727.814 570.127H741.745C742.921 570.028 743.958 570.865 744.06 571.995C744.163 573.126 743.294 574.123 742.118 574.222C741.994 574.231 741.869 574.231 741.745 574.222Z" fill="#EBEBF0"/>
<path d="M741.035 589.974H720.449C720 589.96 719.644 589.606 719.644 589.174C719.644 588.742 720 588.388 720.449 588.374H741.035C741.495 588.374 741.868 588.732 741.868 589.174C741.872 589.382 741.79 589.583 741.64 589.733C741.49 589.883 741.285 589.97 741.068 589.974H741.035Z" fill="#EBEBF0"/>
<path d="M740.122 593.316H719.535C719.147 593.24 718.868 592.912 718.868 592.531C718.868 592.151 719.147 591.823 719.535 591.747H740.12C740.508 591.823 740.787 592.151 740.787 592.531C740.787 592.912 740.508 593.24 740.12 593.316" fill="#EBEBF0"/>
<path d="M730.182 710.315H785.643C785.924 710.315 786.194 710.423 786.393 710.614C786.591 710.805 786.703 711.065 786.703 711.335V720.369C786.703 720.932 786.228 721.388 785.643 721.389H730.182C729.596 721.389 729.121 720.932 729.121 720.369V711.335C729.121 711.065 729.233 710.805 729.431 710.614C729.63 710.422 729.9 710.315 730.182 710.315" fill="#C9CBD4"/>
<path d="M689.775 671.449H745.235C745.822 671.449 746.297 671.906 746.297 672.469V681.503C746.297 681.773 746.185 682.033 745.986 682.224C745.786 682.415 745.517 682.522 745.235 682.522H689.775C689.19 682.522 688.715 682.066 688.715 681.503V672.469C688.715 672.199 688.827 671.939 689.025 671.748C689.224 671.557 689.494 671.449 689.775 671.449Z" fill="#C9CBD4"/>
<path d="M966.788 736.35H662.29L658 618.939H971.078L966.788 736.35Z" fill="#EDD1AF"/>
<path d="M671.361 753.117C671.159 753.526 671.19 754.005 671.441 754.387C671.693 754.769 672.131 755 672.601 755H677.348C678.168 754.836 678.808 754.22 678.979 753.431L689.288 736.445L679.499 736.523L671.361 753.117Z" fill="#E0AF7F"/>
<path d="M957.717 753.117C957.918 753.525 957.888 754.004 957.636 754.386C957.385 754.768 956.948 755 956.478 755H951.719C950.897 754.839 950.255 754.222 950.088 753.431L939.761 736.445L949.63 736.523L957.717 753.117Z" fill="#E0AF7F"/>
<mask id="mask3_2507_21965" style="mask-type:alpha" maskUnits="userSpaceOnUse" x="658" y="618" width="314" height="119">
<path fillRule="evenodd" clip-rule="evenodd" d="M966.788 736.35H662.29L658 618.939H971.078L966.788 736.35Z" fill="white"/>
</mask>
<g mask="url(#mask3_2507_21965)">
<path d="M958.807 618.939H953.518C956.361 619.793 959.248 620.732 962.181 621.686C965.054 622.62 967.944 623.562 970.881 624.455L970.94 622.828C968.164 621.976 965.423 621.085 962.704 620.201C961.396 619.776 960.096 619.355 958.807 618.939" fill="#EAC8A3"/>
<path fillRule="evenodd" clip-rule="evenodd" d="M907.316 618.939H912.601C910.013 619.716 907.39 620.568 904.729 621.432C904.472 621.516 904.214 621.6 903.956 621.684L903.939 621.689C892.246 625.495 878.995 629.808 864.374 629.808H860.237C860.514 629.799 860.769 629.655 860.912 629.423C861.064 629.177 861.064 628.87 860.912 628.623C860.769 628.392 860.514 628.248 860.237 628.239H864.374C878.735 628.239 891.287 624.152 903.428 620.199L903.432 620.198C903.642 620.129 903.852 620.061 904.062 619.993C905.153 619.638 906.237 619.285 907.316 618.939ZM860.182 628.239C860.2 628.238 860.218 628.238 860.237 628.239H860.182ZM860.182 629.808H860.237C860.218 629.808 860.2 629.808 860.182 629.808ZM788.543 628.239H789.407C789.083 628.239 788.762 628.241 788.442 628.246L788.543 628.239Z" fill="#EAC8A3"/>
<path d="M850.241 657.012H660.474L660.787 658.685H850.241C864.372 658.685 875.835 662.308 887.969 666.145C895.776 668.789 903.764 670.931 911.876 672.555H948.183C955.351 671.152 962.414 669.301 969.324 667.015L969.39 665.233C957.622 668.939 945.329 672.553 930.031 672.553C913.801 672.553 900.956 668.489 888.529 664.56C876.254 660.679 864.658 657.017 850.239 657.017" fill="#EAC8A3"/>
<path d="M864.399 642.826H732.465C721.38 644.917 709.978 644.917 698.892 642.826H681.25L681.538 644.394H864.399C878.726 644.394 891.289 648.482 903.436 652.434C913.786 655.801 923.562 658.981 933.071 658.981C942.579 658.981 952.343 655.802 962.682 652.439C965.081 651.662 967.497 650.872 969.938 650.113L970 648.45C967.313 649.275 964.701 650.126 962.158 650.954C951.95 654.276 942.312 657.413 933.071 657.413C923.829 657.413 914.176 654.273 903.959 650.949C891.685 646.956 878.994 642.827 864.398 642.827" fill="#EAC8A3"/>
<path fillRule="evenodd" clip-rule="evenodd" d="M902.469 635.702C903.189 635.299 920.258 625.887 933.07 625.887H933.073C945.884 625.887 962.971 635.301 963.69 635.702C963.939 635.84 964.094 636.094 964.098 636.37C964.102 636.646 963.954 636.904 963.709 637.048C963.024 637.451 946.801 646.904 933.073 646.904C919.345 646.904 903.134 637.451 902.451 637.048C902.206 636.904 902.058 636.646 902.062 636.37C902.065 636.094 902.22 635.84 902.469 635.702ZM904.533 636.397C908.59 638.601 921.92 645.336 933.071 645.336C944.226 645.336 957.569 638.598 961.628 636.397C957.426 634.224 943.515 627.455 933.071 627.455C922.627 627.455 908.725 634.225 904.533 636.397Z" fill="#EAC8A3"/>
<path fillRule="evenodd" clip-rule="evenodd" d="M802.326 707.693C812.656 704.331 822.409 701.156 831.921 701.156H831.923C841.442 701.156 851.217 704.337 861.566 707.704L861.568 707.704C873.716 711.656 886.277 715.742 900.613 715.742H967.544L967.487 717.31H900.613C886.01 717.31 873.317 713.181 861.045 709.189C850.828 705.864 841.173 702.725 831.923 702.725C822.677 702.725 813.041 705.861 802.839 709.182L802.828 709.185L802.818 709.188C791.124 712.996 777.87 717.31 763.247 717.31H759.071C759.511 717.296 759.861 716.949 759.861 716.526C759.861 716.103 759.511 715.756 759.071 715.742H763.247C777.608 715.742 790.161 711.654 802.303 707.7L802.326 707.693ZM687.41 715.742H688.291H688.295C688.127 715.742 687.961 715.743 687.796 715.745C687.632 715.747 687.469 715.749 687.307 715.749L687.41 715.742Z" fill="#EAC8A3"/>
<path d="M848.752 688.153H815.162C807.676 689.674 800.305 691.68 793.1 694.158C781.889 697.757 771.301 701.156 758.224 701.156H759.088C759.518 701.156 759.876 701.477 759.903 701.891C759.93 702.304 759.618 702.667 759.19 702.718C772.084 702.558 782.551 699.197 793.616 695.646C805.092 691.962 816.957 688.153 831.955 688.153C846.953 688.153 858.837 691.965 870.326 695.651C881.663 699.288 892.372 702.725 905.684 702.725H968.017L968.076 701.156H905.684C892.637 701.156 882.051 697.759 870.842 694.162C863.627 691.683 856.247 689.675 848.75 688.153" fill="#EAC8A3"/>
<path fillRule="evenodd" clip-rule="evenodd" d="M900.644 730.329H967.007H967.012L966.955 731.897H900.647C890.736 731.897 881.681 733.846 873.026 736.35H867.597C877.629 733.215 888.681 730.329 900.644 730.329ZM662.071 730.329H763.277H763.278C775.305 730.329 786.037 733.131 796.308 736.35H790.873C782.221 733.845 773.171 731.897 763.278 731.897H662.129L662.071 730.329Z" fill="#EAC8A3"/>
<path fillRule="evenodd" clip-rule="evenodd" d="M801.351 723.125C802.071 722.722 819.141 713.311 831.953 713.311H831.955C844.765 713.311 861.855 722.725 862.573 723.125C862.822 723.263 862.977 723.517 862.98 723.793C862.984 724.07 862.835 724.328 862.59 724.472C861.906 724.875 845.681 734.328 831.955 734.328C818.229 734.328 802.017 724.874 801.333 724.472C801.088 724.327 800.94 724.069 800.944 723.793C800.948 723.517 801.102 723.263 801.351 723.125ZM803.416 723.821C807.472 726.024 820.802 732.759 831.953 732.759C843.114 732.759 856.449 726.022 860.51 723.821C856.31 721.648 842.399 714.879 831.953 714.879C821.508 714.879 807.607 721.648 803.416 723.821Z" fill="#EAC8A3"/>
<path d="M860.187 628.239H789.41C789.086 628.239 788.764 628.241 788.444 628.246C775.549 628.407 765.083 631.769 754.017 635.326C742.542 639.015 730.676 642.828 715.679 642.828C701.855 642.828 690.682 639.588 680.023 636.192L680.348 637.947C686.412 639.96 692.606 641.59 698.89 642.828C709.976 644.919 721.378 644.919 732.463 642.828C739.953 641.305 747.326 639.296 754.534 636.815C765.745 633.213 776.333 629.81 789.41 629.81H860.187C860.485 629.819 860.764 629.672 860.916 629.425C861.068 629.179 861.068 628.872 860.916 628.625C860.764 628.379 860.485 628.231 860.187 628.241" fill="#EAC8A3"/>
<path d="M759.333 618.939H753.69C750.637 619.862 747.673 620.827 744.806 621.761C734.6 625.085 724.96 628.223 715.71 628.223C706.461 628.223 696.807 625.083 686.589 621.758C683.665 620.808 680.717 619.848 677.726 618.939H676.841L677.11 620.397C680.133 621.314 683.111 622.283 686.066 623.246C696.416 626.614 706.191 629.794 715.71 629.794C725.229 629.794 734.991 626.615 745.328 623.25C749.908 621.758 754.554 620.246 759.331 618.942" fill="#EAC8A3"/>
<path d="M670.941 685.621L669.661 687.009C674.143 687.759 678.684 688.142 683.234 688.153H968.548L968.605 686.585H683.234C679.116 686.576 675.006 686.254 670.941 685.621" fill="#EAC8A3"/>
<path d="M683.635 671.854L682.272 673.331C684.224 673.485 686.224 673.567 688.289 673.567H969.079L969.134 672H688.292C686.706 672 685.154 671.949 683.635 671.854Z" fill="#EAC8A3"/>
<path d="M759.069 715.742H688.291C687.961 715.742 687.633 715.742 687.303 715.749C677.859 715.869 669.719 717.706 661.69 720.078L661.749 721.702C670.071 719.224 678.479 717.311 688.287 717.311H759.065C759.505 717.297 759.854 716.95 759.854 716.526C759.854 716.103 759.505 715.756 759.065 715.742" fill="#EAC8A3"/>
<path d="M759.088 701.156H683.255C675.776 701.236 668.337 702.223 661.114 704.092L661.173 705.681C668.371 703.789 675.793 702.796 683.255 702.726H759.088L759.191 702.719C759.618 702.667 759.931 702.305 759.903 701.891C759.876 701.478 759.519 701.156 759.088 701.157" fill="#EAC8A3"/>
</g>
<path d="M884.476 560.498C884.476 560.498 884.362 586.268 871.85 586.237C859.339 586.206 863.695 561.564 863.695 561.564L884.476 560.498Z" fill="white"/>
<path d="M884.475 560.498C884.475 560.498 902.907 569.91 908.943 574.348C914.978 578.786 921.08 618.939 921.08 618.939H829.34C829.34 618.939 837.398 579.728 841.558 574.928C845.717 570.128 863.758 561.582 863.758 561.582L867.249 584.182L884.475 560.498Z" fill="#4141A2"/>
<path d="M880.83 602.212C871.85 602.212 862.184 603.789 855.686 609.261C856.789 609.066 857.909 608.973 859.032 608.981C862.273 608.891 865.458 609.809 868.113 611.599C871.377 610.892 904 605.136 904 605.136H904.032C896.447 603.273 888.658 602.291 880.83 602.212" fill="#31317C"/>
<path d="M875.815 618.922H865.391C865.391 618.922 851.509 618.625 848.818 618.358C846.126 618.091 850.449 611.001 855.686 609.261C860.922 607.52 868.115 611.598 868.115 611.598L874.64 610.234L875.815 618.922Z" fill="#F39B59"/>
<path d="M888.807 543.156C886.407 544.797 882.035 548.824 881.249 550.349C879.999 554.829 884.476 560.498 884.476 560.498L878.308 563.509C873.493 565.861 867.665 565.085 863.695 561.564C866.13 551.5 862.634 552.175 862.634 552.175C861.352 551.888 860.146 551.35 859.092 550.593C856.743 549.125 852.466 534.792 852.466 534.792L855.32 527.327L855.979 515.514L868.902 505.779C868.902 505.779 887.491 509.512 891.506 518.285C895.522 527.059 888.807 543.158 888.807 543.158" fill="#D06E31"/>
<path d="M888.81 543.155C888.81 543.155 888.485 540.247 889.098 530.194C886.698 527.796 882.043 533.544 881.421 532.759C880.798 531.973 883.105 516.377 883.105 516.377C871.323 522.076 864.117 511.391 855.98 515.514C855.907 499.99 885.025 495.683 896.093 508.685C902.507 516.29 902.438 533.942 888.81 543.155Z" fill="#6E2F0F"/>
<path d="M870.299 540.994C868.464 543.943 865.021 545.606 861.464 545.263V542.04C865.221 542.525 870.299 540.998 870.299 540.998" fill="#471F05"/>
<path d="M859.501 529.969C859.31 531.39 858.438 532.473 857.553 532.404C856.682 532.327 856.109 531.126 856.3 529.707C856.491 528.287 857.363 527.203 858.25 527.272C859.121 527.349 859.687 528.55 859.501 529.969Z" fill="#471F05"/>
<path d="M871.798 531.136C871.608 532.558 870.736 533.64 869.849 533.572C868.979 533.494 868.406 532.293 868.597 530.875C868.789 529.456 869.66 528.371 870.549 528.439C871.418 528.517 871.986 529.718 871.798 531.136Z" fill="#471F05"/>
<path d="M868.715 524.457C870.569 524.244 872.449 524.468 874.193 525.109C874.829 525.324 875.452 525.574 876.058 525.859C875.904 525.786 876.182 525.919 876.226 525.945L876.438 526.054L876.633 526.16C877.451 526.626 878.271 525.444 877.451 524.976C874.749 523.387 871.571 522.716 868.426 523.068C867.484 523.205 867.78 524.597 868.718 524.46" fill="#471F05"/>
<path d="M862.385 522.304C860.428 521.914 858.403 521.967 856.47 522.459C856.077 522.553 855.83 522.929 855.913 523.311C856.008 523.69 856.401 523.927 856.797 523.844C858.47 523.403 860.226 523.338 861.929 523.656C862.316 523.766 862.726 523.565 862.861 523.199C862.983 522.825 862.771 522.427 862.385 522.304Z" fill="#471F05"/>
<path d="M865.636 535.954C865.062 535.932 864.601 535.895 864.093 535.835C863.649 535.79 863.209 535.719 862.775 535.623C862.685 535.6 862.605 535.58 862.521 535.555L862.387 535.516L862.42 535.525L862.24 535.439C862.124 535.381 862.27 535.448 862.279 535.466C862.225 535.364 862.337 535.546 862.35 535.575C862.389 535.679 862.402 535.79 862.391 535.9L862.351 535.942L862.359 535.982L862.495 535.749C862.642 535.516 862.802 535.291 862.956 535.058C863.494 534.261 863.997 533.449 864.452 532.608C865.224 531.158 865.87 529.648 866.382 528.095C866.673 527.223 865.23 526.91 864.945 527.775C864.126 530.181 862.976 532.471 861.526 534.584C861.23 535.016 860.779 535.534 860.987 536.089C861.291 536.914 862.561 537.052 863.322 537.16C864.11 537.269 864.904 537.339 865.699 537.369C866.65 537.407 866.583 535.988 865.64 535.948" fill="#471F05"/>
<path d="M851.905 525.341C851.584 525.358 851.283 525.5 851.074 525.735C850.864 525.97 850.763 526.277 850.794 526.585L851.099 532.142C851.108 532.694 851.534 533.157 852.103 533.232L853.029 533.318L855.319 527.326L855.409 525.661L851.997 525.346L851.898 525.341" fill="#FAFAFB"/>
<path fillRule="evenodd" clip-rule="evenodd" d="M855.324 527.325L855.414 525.66V525.656L860.853 526.159C861.19 526.208 861.489 526.394 861.675 526.669C861.86 526.944 861.915 527.283 861.825 527.599L860.548 533.011C860.448 533.513 860.001 533.883 859.47 533.902H859.371L853.033 533.317L855.324 527.325ZM857.553 532.407H857.632C858.49 532.407 859.316 531.35 859.501 529.969C859.687 528.549 859.122 527.349 858.251 527.271H858.171C857.311 527.271 856.486 528.328 856.3 529.71C856.109 531.129 856.683 532.33 857.553 532.407Z" fill="#CE9375"/>
<path d="M858.171 527.268C857.311 527.268 856.486 528.329 856.3 529.707C856.109 531.126 856.682 532.327 857.553 532.404H857.632C858.49 532.404 859.315 531.344 859.501 529.966C859.691 528.546 859.121 527.346 858.25 527.268H858.171Z" fill="#917969"/>
<path fillRule="evenodd" clip-rule="evenodd" d="M859.29 534.682L859.462 534.69C860.373 534.669 861.15 534.047 861.337 533.19L862.616 527.779C862.754 527.211 862.63 526.613 862.277 526.139C861.962 525.712 861.471 525.436 860.93 525.382L852.08 524.566C851.538 524.52 851.001 524.702 850.609 525.066C850.174 525.474 849.944 526.043 849.981 526.626L850.287 532.184C850.312 533.124 851.053 533.904 852.026 534.012L859.29 534.682ZM859.753 532.841C859.734 532.993 859.605 533.111 859.447 533.122L852.188 532.452C852.024 532.41 851.912 532.264 851.919 532.101L851.613 526.544C851.603 526.416 851.65 526.29 851.743 526.198L851.93 526.127L860.781 526.943C860.855 526.955 860.92 526.996 860.961 527.057C861.038 527.165 861.064 527.301 861.032 527.429L859.753 532.841Z" fill="#471F05"/>
<path fillRule="evenodd" clip-rule="evenodd" d="M866.055 527.35C866.21 526.983 866.578 526.74 866.99 526.733L866.995 526.732H867.084L877.147 527.658C877.454 527.699 877.729 527.865 877.901 528.114C878.073 528.362 878.125 528.67 878.045 528.959L876.636 534.604C876.534 535.056 876.123 535.382 875.641 535.392H875.552L867.295 534.632C866.78 534.571 866.386 534.161 866.364 533.662L866.05 529.054C866.166 528.739 866.277 528.422 866.384 528.104C866.504 527.809 866.359 527.475 866.055 527.35ZM869.854 533.578H869.933V533.577C870.793 533.577 871.619 532.521 871.803 531.139C871.991 529.72 871.423 528.519 870.554 528.442H870.473C869.613 528.442 868.787 529.499 868.602 530.881C868.411 532.299 868.984 533.501 869.854 533.578Z" fill="#CE9375"/>
<path d="M870.468 528.436C869.608 528.436 868.782 529.497 868.597 530.875C868.406 532.294 868.979 533.495 869.849 533.572H869.928C870.788 533.572 871.614 532.513 871.798 531.134C871.989 529.715 871.418 528.514 870.549 528.437H870.468" fill="#917969"/>
<path d="M866.056 527.347C865.985 527.505 865.954 527.677 865.966 527.849L866.048 529.052C866.163 528.736 866.275 528.42 866.382 528.102C866.502 527.806 866.356 527.473 866.053 527.348" fill="#917969"/>
<path fillRule="evenodd" clip-rule="evenodd" d="M875.476 536.169L875.651 536.178C876.507 536.169 877.244 535.593 877.428 534.79L878.838 529.144C878.971 528.617 878.859 528.06 878.533 527.617C878.228 527.2 877.749 526.932 877.222 526.881L867.158 525.954C866.63 525.907 866.108 526.086 865.729 526.443C865.323 526.823 865.112 527.356 865.152 527.9L865.549 533.712C865.594 534.595 866.3 535.315 867.214 535.41L875.476 536.169ZM866.869 527.567L866.992 527.514L867.008 527.514L877.07 528.441L877.21 528.527C877.264 528.6 877.281 528.692 877.257 528.778L875.848 534.424C875.824 534.523 875.738 534.598 875.632 534.61L867.371 533.85C867.254 533.825 867.173 533.724 867.175 533.61L866.779 527.798C866.771 527.712 866.804 527.627 866.869 527.567Z" fill="#471F05"/>
<path d="M865.748 529.878H865.676L861.789 529.55C861.341 529.512 861.009 529.132 861.049 528.701C861.088 528.27 861.483 527.951 861.932 527.989L865.818 528.317C866.255 528.351 866.585 528.711 866.566 529.132C866.547 529.552 866.186 529.883 865.748 529.881V529.878Z" fill="#471F05"/>
<path d="M892.319 537.377C891.952 537.377 891.631 537.141 891.534 536.801C890.983 534.88 888.911 529.807 885.959 529.432L877.053 528.436C876.837 528.413 876.64 528.308 876.505 528.145C876.371 527.982 876.309 527.774 876.334 527.567C876.39 527.139 876.791 526.832 877.238 526.877L886.158 527.873C890.796 528.47 893.01 536.06 893.103 536.382C893.221 536.8 892.966 537.231 892.532 537.346L892.319 537.377Z" fill="#471F05"/>
<path d="M891.29 534.572C890.586 539.121 888.591 540.108 886.273 539.418C883.955 538.728 883.677 537.32 883.804 534.593C883.93 531.865 884.868 529.988 887.24 529.585C889.613 529.182 891.984 530.023 891.29 534.573" fill="#D06E31"/>
<rect width="53.533" height="5.5792" transform="matrix(-1 0 0 1 875.355 613.682)" fill="#8A8F9E"/>
<path d="M841.372 619.261L827.502 572.983C826.971 571.202 825.321 569.986 823.457 570H766.105C765.552 569.995 765.019 570.21 764.624 570.597C764.229 570.984 764.005 571.511 764 572.063C763.998 572.266 764.026 572.467 764.083 572.661L778.032 619.266H841.374" fill="#8A8F9E"/>
<path d="M800.164 587.762C803.657 587.762 806.489 590.584 806.489 594.065C806.489 597.546 803.657 600.368 800.164 600.368C796.671 600.368 793.839 597.546 793.839 594.065C793.839 590.584 796.671 587.762 800.164 587.762Z" fill="#717684"/>
<path d="M639.028 723.076C639.028 723.076 629.239 734.766 629.239 736.084C629.239 737.402 632.306 742 632.306 742L627.413 744.009L617.332 737.371L634.296 712.641L639.028 723.076Z" fill="#A14D2C"/>
<path d="M649.044 755.307H632.944L612 740.243L618.638 732.24C618.638 732.24 622.961 741.388 632.324 740.886L637.353 746.501C642.949 746.335 647.869 750.039 649.048 755.304" fill="#3F4450"/>
<path d="M658.131 733.934C658.131 733.934 657.348 742.895 657.999 743.726C658.651 744.557 665.569 745.907 665.569 745.907L663.546 751.164L650.675 752.733L648.587 735.912L658.131 733.934Z" fill="#A14D2C"/>
<path d="M669.189 602.178L658.309 736.256L646.124 737.7L642.665 667.512C642.665 667.512 626.175 625.051 628.28 602.723L669.189 602.174" fill="#3F4450"/>
<path d="M666.988 517.078C666.988 517.078 664.068 532.299 666.319 539.487L646.059 525.505C648.653 519.229 652.682 512.073 652.682 512.073L666.988 517.078Z" fill="#A14D2C"/>
<path d="M628.279 602.66C628.279 602.66 634.249 547.114 646.06 525.504L666.386 539.486L672.502 558.645L678.391 602.173L628.282 602.66" fill="#FA4338"/>
<path fillRule="evenodd" clip-rule="evenodd" d="M645.155 602.502C639.25 620.909 663.964 666.413 663.964 666.413L663.972 666.414L621.233 726.12L632.163 732.02L690.576 668.641L690.568 668.641L678.316 602.173L645.155 602.502Z" fill="#3F4450"/>
<path d="M637.561 548.822L648.554 562.677L665.96 553.294L662.534 542.277L637.561 548.822Z" fill="#FA4338"/>
<path d="M646.059 525.504L657.316 543.644L666.319 539.487L646.059 525.504Z" fill="white"/>
<mask id="mask4_2507_21965" style="mask-type:alpha" maskUnits="userSpaceOnUse" x="643" y="622" width="25" height="73">
<path fillRule="evenodd" clip-rule="evenodd" d="M643.435 622.446H667.853V694.25H643.435V622.446Z" fill="white"/>
</mask>
<g mask="url(#mask4_2507_21965)">
<path d="M667.854 622.446L667.481 623.252L664.054 665.494L667.854 622.45" fill="#373D49"/>
<path d="M667.48 623.252L663.139 632.63L661.28 662.71L643.435 683.047L643.989 694.25L663.972 666.414L664.053 665.491L667.48 623.252Z" fill="#373D49"/>
</g>
<mask id="mask5_2507_21965" style="mask-type:alpha" maskUnits="userSpaceOnUse" x="638" y="547" width="41" height="56">
<path fillRule="evenodd" clip-rule="evenodd" d="M638.016 547.111H678.322V602.189H638.016V547.111Z" fill="white"/>
</mask>
<g mask="url(#mask5_2507_21965)">
<path d="M638.016 547.111L638.106 547.387L638.132 547.286L638.013 547.113" fill="#DDDDDF"/>
<path fillRule="evenodd" clip-rule="evenodd" d="M638.115 547.389L638.141 547.288L638.941 548.464L638.522 548.574C638.333 548.034 638.197 547.633 638.115 547.389ZM669.942 600.362C654.372 588.324 643.304 561.53 639.482 551.243L639.489 551.247L648.559 562.68L648.583 562.668L648.592 562.68L650.049 561.88L675.014 596.526L677.491 595.981L678.324 602.176L669.942 600.362Z" fill="#E91C1C"/>
<path d="M650.075 561.861L650.047 561.877L675.016 596.523L677.492 595.978L677.462 595.753L675.016 596.523L650.075 561.861Z" fill="#DAA983"/>
<path d="M638.935 548.461L638.517 548.571C638.756 549.252 639.078 550.156 639.482 551.244L648.552 562.677L648.577 562.665L638.933 548.461" fill="#E91C1C"/>
</g>
<path d="M686.822 755.276H649.043L648.733 746.614C648.733 746.614 656.367 752.687 665.568 745.877L674.767 746.3C680.437 746.283 685.399 749.964 686.822 755.245" fill="#3F4450"/>
<path d="M652.349 512.583C651.79 510.435 650.952 508.362 649.855 506.414C649.855 506.414 648.199 486.855 655.741 480.185C663.282 473.515 682.373 477.384 682.373 477.384C686.137 479.551 688.574 483.34 688.909 487.547C689.448 494.652 681.259 503.578 688.897 510.301C688.897 510.301 678.379 521.51 677.375 521.755" fill="#A14D2C"/>
<path d="M677.377 521.753C673.898 522.611 666.887 517.761 666.887 517.761L677.377 521.753Z" fill="#A14D2C"/>
<path d="M674.522 511.443C675.038 513.929 676.937 515.938 679.461 516.667C679.627 516.713 679.795 516.748 679.966 516.771C680.387 516.843 680.793 516.583 680.887 516.182C680.967 515.776 680.695 515.382 680.275 515.297C680.154 515.282 680.034 515.259 679.916 515.229C679.779 515.198 679.638 515.132 679.502 515.113C679.586 515.125 679.689 515.18 679.548 515.127L679.423 515.082C679.334 515.049 679.244 515.014 679.159 514.975C678.956 514.887 678.758 514.788 678.566 514.679L678.415 514.593C678.384 514.574 678.235 514.474 678.325 514.537C678.415 514.6 678.264 514.494 678.235 514.473L678.056 514.341C677.84 514.175 677.637 513.994 677.448 513.8L677.345 513.692L677.243 513.572C677.137 513.443 677.039 513.313 676.944 513.175C676.837 513.021 676.739 512.862 676.647 512.699L676.595 512.605C676.481 512.4 676.623 512.669 676.563 512.546C676.518 512.454 676.473 512.361 676.436 512.268C676.253 511.844 676.109 511.406 676.004 510.958C675.862 510.57 675.423 510.362 675.016 510.491C674.614 510.633 674.4 511.054 674.53 511.446" fill="#471F05"/>
<path d="M682.924 503.898C682.556 505.083 681.769 505.901 681.167 505.727C680.565 505.553 680.372 504.456 680.741 503.272C681.109 502.089 681.895 501.27 682.498 501.442C683.101 501.615 683.291 502.715 682.924 503.898Z" fill="#471F05"/>
<path fillRule="evenodd" clip-rule="evenodd" d="M680.938 506.458C681.067 506.496 681.201 506.514 681.335 506.515C681.6 506.512 681.86 506.445 682.09 506.32C682.892 505.805 683.462 505.018 683.685 504.117C684.202 502.454 683.802 501.02 682.724 500.71C682.336 500.605 681.92 500.655 681.571 500.849C680.009 501.983 679.395 503.962 680.056 505.734C680.235 506.08 680.554 506.342 680.938 506.458ZM681.504 503.489C681.626 503.015 681.884 502.583 682.249 502.243C682.554 502.331 682.771 502.589 682.796 502.893C682.821 503.197 682.648 503.485 682.362 503.617C682.076 503.749 681.735 503.698 681.504 503.489Z" fill="#471F05"/>
<path d="M685.946 496.018C684.22 495.451 682.378 495.293 680.575 495.556C679.661 495.663 678.761 495.858 677.889 496.139C677.501 496.288 677.303 496.703 677.438 497.082C677.573 497.462 677.994 497.673 678.395 497.561C678.601 497.49 678.811 497.434 679.019 497.38C679.534 497.242 680.058 497.138 680.587 497.07C682.14 496.804 683.737 496.903 685.242 497.36C685.628 497.532 686.086 497.387 686.29 497.027C686.481 496.657 686.328 496.208 685.946 496.018Z" fill="#471F05"/>
<path fillRule="evenodd" clip-rule="evenodd" d="M712.969 579.717V579.722L680.836 582.903L662.094 551.395L649.614 561.281L675.012 596.524L712.969 588.176V588.177C725.019 590.965 724.693 585.689 724.273 580.78C728.476 579.799 733.05 578.478 732.638 577.453C732.221 576.416 727.119 577.174 722.674 578.051C719.633 577.449 712.969 579.717 712.969 579.717Z" fill="#A14D2C"/>
<path d="M668.094 488.987C673.76 486.429 677.234 478.777 678.262 475.271L669.405 476.462L649.641 491.468C653.431 491.707 662.428 491.545 668.094 488.987Z" fill="#2B1303"/>
<path d="M673.05 499.387C671.374 501.371 667.349 515.087 668.016 526.665C656.235 521.983 640.763 513.12 639 508.926C637.009 504.908 637.3 482.751 651.113 469.701C664.925 456.651 686.743 480.577 686.743 480.577C686.743 480.577 677.014 483.97 673.049 499.397" fill="#2B1303"/>
<path d="M668.584 506.006C666.146 505.2 664.731 502.893 666.975 499.062C668.808 495.13 671.71 495.829 673.64 497.823C675.569 499.817 675.377 501.518 673.895 504.002C672.101 505.977 670.97 507.015 668.585 506.004" fill="#A14D2C"/>
<g clip-path="url(#clip1_2507_21965)">
<path d="M1443.64 707.736H1241.3C1240.36 707.736 1239.43 707.55 1238.55 707.188C1237.68 706.826 1236.89 706.296 1236.22 705.628C1235.55 704.959 1235.02 704.166 1234.66 703.293C1234.3 702.42 1234.12 701.484 1234.12 700.54L1236.51 611.428C1236.51 608.908 1237 606.413 1237.97 604.086C1238.93 601.758 1240.35 599.644 1242.13 597.863C1243.91 596.082 1246.03 594.669 1248.35 593.706C1250.68 592.743 1253.18 592.248 1255.7 592.25H1429.2C1434.29 592.25 1439.16 594.27 1442.76 597.867C1446.36 601.464 1448.38 606.341 1448.38 611.428L1450.78 700.54C1450.78 702.438 1450.03 704.259 1448.69 705.607C1447.35 706.955 1445.54 707.72 1443.64 707.736Z" fill="#3D4453"/>
<path d="M1383.89 678.63C1384.57 680.089 1400.81 679.693 1416.95 680.856C1433.08 682.018 1449.09 684.763 1450.11 683.514C1452.09 681.041 1449.12 667.65 1450.21 651.65C1451.29 635.65 1456.56 622.865 1454.79 620.108C1453.03 617.35 1438.63 621.171 1421.52 619.898C1404.41 618.624 1390.86 613.505 1388.57 615.211C1386.28 616.918 1389.59 633.152 1388.47 647.088C1387.34 661.023 1382.51 675.699 1383.89 678.63Z" fill="#FFB0C5"/>
<path d="M1235.84 753.51C1235.72 753.764 1235.66 754.045 1235.68 754.326C1235.7 754.607 1235.79 754.879 1235.94 755.116C1236.09 755.354 1236.3 755.549 1236.54 755.683C1236.79 755.818 1237.07 755.887 1237.35 755.884H1243.14C1243.62 755.79 1244.06 755.554 1244.41 755.206C1244.76 754.858 1245 754.414 1245.09 753.931L1257.64 732.453L1245.66 732.552L1235.84 753.51Z" fill="#E0AF7F"/>
<path d="M1450.33 753.51C1450.45 753.765 1450.51 754.047 1450.49 754.329C1450.47 754.611 1450.38 754.884 1450.23 755.122C1450.08 755.359 1449.87 755.554 1449.62 755.688C1449.37 755.821 1449.09 755.889 1448.81 755.884H1443.02C1442.54 755.79 1442.1 755.554 1441.75 755.206C1441.4 754.858 1441.16 754.414 1441.07 753.931L1428.52 732.453L1440.5 732.552L1450.33 753.51Z" fill="#E0AF7F"/>
<path d="M1219.68 632.584H1221.39C1224.41 632.584 1227.34 633.643 1229.67 635.576C1231.99 637.509 1233.57 640.195 1234.12 643.168L1244.32 698.24H1441.84L1450.78 643.452C1451.27 640.418 1452.83 637.657 1455.17 635.666C1457.51 633.675 1460.49 632.582 1463.56 632.584H1466.48C1468.26 632.585 1470.03 632.956 1471.67 633.671C1473.3 634.387 1474.77 635.434 1475.98 636.744C1477.19 638.055 1478.12 639.602 1478.71 641.288C1479.29 642.974 1479.53 644.764 1479.39 646.543L1474.55 708.565C1474.03 715.062 1471.09 721.125 1466.3 725.551C1461.52 729.976 1455.24 732.44 1448.72 732.453H1237.42C1230.91 732.44 1224.63 729.976 1219.85 725.551C1215.06 721.125 1212.11 715.062 1211.59 708.565L1206.77 646.543C1206.63 644.764 1206.86 642.974 1207.45 641.288C1208.04 639.602 1208.96 638.055 1210.18 636.744C1211.39 635.434 1212.86 634.387 1214.49 633.671C1216.13 632.956 1217.89 632.585 1219.68 632.584Z" fill="#3D4453"/>
<g style="mix-blend-mode:multiply">
<g style="mix-blend-mode:multiply">
<path d="M1371.7 593H1403.27C1403.27 593 1432.52 636.437 1424.68 679.491L1358 679.936L1371.7 593Z" fill="#CACACA"/>
</g>
</g>
<path d="M1440.84 679.186H1245.34C1243.35 679.186 1241.74 680.797 1241.74 682.784V697.041C1241.74 699.028 1243.35 700.639 1245.34 700.639H1440.84C1442.82 700.639 1444.43 699.028 1444.43 697.041V682.784C1444.43 680.797 1442.82 679.186 1440.84 679.186Z" fill="#4C505D"/>
<path d="M1227.88 529.132H1338.81C1341.45 529.134 1343.58 531.25 1343.59 533.862V566.789C1343.61 569.401 1341.48 571.536 1338.85 571.56L1338.81 571.971V571.56H1325.45L1322.16 578.313C1322.11 578.409 1322.01 578.47 1321.9 578.47L1321.77 578.439L1321.64 578.31L1318.07 571.54H1227.9C1225.26 571.537 1223.13 569.421 1223.12 566.81V533.879C1223.12 532.624 1223.61 531.417 1224.51 530.525C1225.4 529.633 1226.61 529.129 1227.88 529.124" fill="white"/>
<path fillRule="evenodd" clip-rule="evenodd" d="M1338.95 527.674H1228.58L1228.58 527.672C1227.09 527.672 1225.67 528.264 1224.62 529.316C1223.58 530.369 1222.99 531.795 1223 533.279V566.364C1223 569.451 1225.49 571.958 1228.58 571.967H1317.81L1321.12 578.322C1321.23 578.539 1321.41 578.714 1321.62 578.821C1322.18 579.092 1322.85 578.864 1323.12 578.311L1326.17 571.989H1338.98C1342.07 571.962 1344.54 569.445 1344.52 566.361V533.277C1344.53 530.19 1342.03 527.682 1338.95 527.674ZM1338.98 571.155L1338.94 571.568V571.16H1325.66L1322.38 577.95C1322.33 578.047 1322.23 578.108 1322.12 578.108L1321.99 578.077L1321.86 577.948L1318.31 571.14H1228.58C1225.96 571.137 1223.83 569.01 1223.83 566.385V533.276C1223.82 532.014 1224.31 530.8 1225.2 529.903C1226.09 529.006 1227.3 528.5 1228.56 528.495H1338.94C1341.57 528.497 1343.7 530.625 1343.7 533.251V566.357C1343.72 568.984 1341.61 571.131 1338.98 571.155Z" fill="#EBEBF0"/>
<path d="M1228.58 527.674V528.12H1228.54L1228.5 528.112L1228.58 527.674ZM1338.95 527.674V527.227L1338.95 527.227L1338.95 527.674ZM1228.58 527.672L1228.58 527.226L1228.62 527.226L1228.67 527.234L1228.58 527.672ZM1224.62 529.316L1224.31 529.001L1224.31 529.001L1224.62 529.316ZM1223 533.279L1223.45 533.277V533.279H1223ZM1223 566.364H1223.45V566.364L1223 566.364ZM1228.58 571.967V572.414L1228.58 572.414L1228.58 571.967ZM1317.81 571.967V571.52H1318.08L1318.2 571.76L1317.81 571.967ZM1321.12 578.322L1321.52 578.115L1321.52 578.123L1321.12 578.322ZM1321.62 578.821L1321.43 579.223L1321.43 579.222L1321.62 578.821ZM1323.12 578.311L1323.52 578.506L1323.52 578.51L1323.12 578.311ZM1326.17 571.989L1325.77 571.794L1325.89 571.542H1326.17V571.989ZM1338.98 571.989L1338.99 572.435H1338.98V571.989ZM1344.52 566.361L1344.08 566.364V566.361H1344.52ZM1344.52 533.277H1344.08L1344.08 533.276L1344.52 533.277ZM1338.94 571.568L1339.39 571.61L1338.5 571.568H1338.94ZM1338.98 571.155L1338.54 571.113L1338.58 570.712L1338.98 570.708L1338.98 571.155ZM1338.94 571.16V570.714H1339.39V571.16H1338.94ZM1325.66 571.16L1325.25 570.966L1325.38 570.714H1325.66V571.16ZM1322.38 577.95L1322.78 578.144L1322.78 578.15L1322.38 577.95ZM1322.12 578.108L1322.12 578.555L1322.07 578.555L1322.02 578.543L1322.12 578.108ZM1321.99 578.077L1321.89 578.512L1321.77 578.483L1321.68 578.393L1321.99 578.077ZM1321.86 577.948L1321.55 578.264L1321.5 578.215L1321.47 578.154L1321.86 577.948ZM1318.31 571.14V570.693H1318.58L1318.7 570.933L1318.31 571.14ZM1228.58 571.14V571.587H1228.58L1228.58 571.14ZM1223.83 566.385L1223.38 566.385V566.385H1223.83ZM1223.83 533.276L1224.27 533.274V533.276H1223.83ZM1225.2 529.903L1224.89 529.589V529.589L1225.2 529.903ZM1228.56 528.495L1228.56 528.048H1228.56V528.495ZM1338.94 528.495V528.048L1338.94 528.048L1338.94 528.495ZM1343.7 533.251L1344.15 533.251V533.251H1343.7ZM1343.7 566.357L1343.25 566.361V566.357H1343.7ZM1228.58 527.227H1338.95V528.12H1228.58V527.227ZM1228.67 527.234L1228.67 527.235L1228.5 528.112L1228.49 528.11L1228.67 527.234ZM1224.31 529.001C1225.44 527.865 1226.98 527.226 1228.58 527.226L1228.58 528.119C1227.21 528.119 1225.9 528.663 1224.94 529.631L1224.31 529.001ZM1222.55 533.281C1222.55 531.678 1223.18 530.138 1224.31 529.001L1224.94 529.631C1223.98 530.599 1223.44 531.911 1223.45 533.277L1222.55 533.281ZM1222.55 566.364V533.279H1223.45V566.364H1222.55ZM1228.58 572.414C1225.24 572.404 1222.55 569.696 1222.55 566.363L1223.45 566.364C1223.44 569.205 1225.74 571.512 1228.58 571.52L1228.58 572.414ZM1317.81 572.414H1228.58V571.52H1317.81V572.414ZM1320.73 578.528L1317.41 572.174L1318.2 571.76L1321.52 578.115L1320.73 578.528ZM1321.43 579.222C1321.12 579.072 1320.87 578.825 1320.72 578.521L1321.52 578.123C1321.59 578.252 1321.69 578.357 1321.82 578.42L1321.43 579.222ZM1323.52 578.51C1323.14 579.283 1322.2 579.601 1321.43 579.223L1321.82 578.42C1322.15 578.583 1322.56 578.446 1322.72 578.113L1323.52 578.51ZM1326.58 572.183L1323.52 578.506L1322.72 578.117L1325.77 571.794L1326.58 572.183ZM1338.98 572.435H1326.17V571.542H1338.98V572.435ZM1344.97 566.358C1344.99 569.688 1342.32 572.407 1338.99 572.435L1338.98 571.542C1341.81 571.518 1344.1 569.201 1344.08 566.364L1344.97 566.358ZM1344.97 533.277V566.361H1344.08V533.277H1344.97ZM1338.95 527.227C1342.28 527.236 1344.98 529.944 1344.97 533.278L1344.08 533.276C1344.08 530.436 1341.78 528.128 1338.94 528.12L1338.95 527.227ZM1338.5 571.526L1338.54 571.113L1339.43 571.196L1339.39 571.61L1338.5 571.526ZM1339.39 571.16V571.568H1338.5V571.16H1339.39ZM1325.66 570.714H1338.94V571.607H1325.66V570.714ZM1321.98 577.756L1325.25 570.966L1326.06 571.355L1322.78 578.144L1321.98 577.756ZM1322.12 577.661C1322.06 577.661 1322.01 577.695 1321.98 577.75L1322.78 578.15C1322.65 578.399 1322.4 578.556 1322.12 578.555L1322.12 577.661ZM1322.1 577.643L1322.23 577.673L1322.02 578.543L1321.89 578.512L1322.1 577.643ZM1322.18 577.632L1322.31 577.761L1321.68 578.393L1321.55 578.264L1322.18 577.632ZM1318.7 570.933L1322.26 577.741L1321.47 578.154L1317.91 571.347L1318.7 570.933ZM1228.58 570.693H1318.31V571.587H1228.58V570.693ZM1224.27 566.384C1224.28 568.763 1226.2 570.691 1228.58 570.693L1228.58 571.587C1225.71 571.584 1223.38 569.257 1223.38 566.385L1224.27 566.384ZM1224.27 533.276V566.385H1223.38V533.276H1224.27ZM1225.52 530.218C1224.72 531.03 1224.27 532.13 1224.27 533.274L1223.38 533.279C1223.37 531.898 1223.91 530.57 1224.89 529.589L1225.52 530.218ZM1228.56 528.942C1227.42 528.946 1226.33 529.405 1225.52 530.218L1224.89 529.589C1225.86 528.608 1227.18 528.053 1228.56 528.048L1228.56 528.942ZM1338.94 528.942H1228.56V528.048H1338.94V528.942ZM1343.25 533.251C1343.25 530.872 1341.32 528.943 1338.94 528.942L1338.94 528.048C1341.82 528.05 1344.15 530.378 1344.15 533.251L1343.25 533.251ZM1343.25 566.357V533.251H1344.15V566.357H1343.25ZM1338.98 570.708C1341.36 570.686 1343.27 568.741 1343.25 566.361L1344.15 566.354C1344.17 569.227 1341.86 571.575 1338.99 571.601L1338.98 570.708Z" fill="#EBEBF0"/>
<path d="M1236.38 537.832H1251.95C1253.67 537.832 1255.05 539.22 1255.05 540.932V556.501C1255.05 558.214 1253.67 559.602 1251.95 559.602H1236.39C1235.56 559.602 1234.77 559.276 1234.19 558.694C1233.61 558.112 1233.28 557.324 1233.28 556.501V540.933C1233.28 539.221 1234.67 537.833 1236.38 537.832V537.832Z" fill="#FA4338"/>
<path d="M1331.75 546.288H1264.24C1262.86 546.255 1261.76 544.966 1261.76 543.386C1261.76 541.807 1262.86 540.518 1264.24 540.484H1331.75C1332.66 540.462 1333.52 541.01 1333.98 541.917C1334.45 542.824 1334.45 543.948 1333.98 544.855C1333.52 545.763 1332.66 546.311 1331.75 546.288Z" fill="#C9CBD4"/>
<path d="M1331.42 558.246H1263.91C1262.54 558.213 1261.44 556.923 1261.44 555.344C1261.44 553.765 1262.54 552.476 1263.91 552.442H1331.42C1332.34 552.42 1333.19 552.968 1333.65 553.875C1334.12 554.782 1334.12 555.906 1333.65 556.813C1333.19 557.72 1332.34 558.268 1331.42 558.246Z" fill="#C9CBD4"/>
<path d="M1250.16 552.991H1250.14C1249.59 552.587 1248.67 549.37 1248.1 545.838C1247.72 544.37 1246.54 543.242 1245.05 542.918C1244.97 542.509 1244.63 542.206 1244.21 542.187C1243.79 542.168 1243.42 542.439 1243.31 542.839C1241.6 543.079 1240.23 544.35 1239.86 546.026C1239.49 549.429 1238.73 552.577 1238.2 552.991H1238.18C1237.88 552.991 1237.64 553.23 1237.64 553.525C1237.64 553.821 1237.88 554.06 1238.18 554.06H1242.48C1242.73 554.772 1243.41 555.248 1244.17 555.248C1244.93 555.248 1245.6 554.772 1245.86 554.06H1250.16C1250.46 554.06 1250.7 553.821 1250.7 553.525C1250.7 553.23 1250.46 552.991 1250.16 552.991Z" fill="white"/>
<path d="M1266.12 716.804C1266.12 716.804 1261.62 723.964 1258.91 724.751C1257.04 725.261 1255.12 725.617 1253.19 725.815L1253.02 731.542L1268.2 735.833L1277.96 729.121L1283.72 720.712L1266.12 716.804Z" fill="#EBEBF0"/>
<path d="M1245.44 738.046C1249.35 738.778 1260.57 737.255 1260.57 737.255L1260.51 739.832L1274.3 741.196L1277.98 729.115C1277.98 729.115 1265.61 733.614 1256.11 725.3C1256.11 725.3 1223.39 725.732 1223.01 728.852C1222.63 731.972 1235.18 736.127 1245.44 738.046Z" fill="#3F4450"/>
<path d="M1381.57 575.297C1381.57 575.297 1360.15 581.426 1356.14 589.394L1362.85 654.856L1414 655.919L1420.99 584.604L1402.09 574.184L1381.57 575.297Z" fill="#FA4338"/>
<g style="mix-blend-mode:multiply">
<g style="mix-blend-mode:multiply">
<path d="M1414 655.913C1414 655.913 1406.79 648.791 1406.14 640.963C1405.49 633.136 1416.75 603.185 1416.75 603.185C1416.75 603.185 1419.12 620.804 1414 655.913Z" fill="#E4E4E4"/>
</g>
</g>
<path d="M1260.36 715.692L1282.42 726.244L1322.68 667.669L1414 655.922L1365.4 647.761C1365.4 647.761 1314.92 636.915 1307.57 639.204C1300.21 641.493 1260.36 715.692 1260.36 715.692Z" fill="#C9CBD4"/>
<path d="M1405.43 555.646C1403.53 557.883 1400.35 563.001 1399.98 564.736C1399.93 569.541 1401.74 574.209 1401.74 574.209C1401.74 574.209 1394.45 584.604 1387.33 584.604C1380.22 584.604 1379.95 575.716 1379.95 575.716C1383.85 574.886 1382.47 571.156 1382.47 571.156C1382.47 571.156 1380.27 571.23 1378.65 570.445C1376.01 569.547 1368.2 556.213 1368.2 556.213L1369.03 548.012L1366.64 535.989L1376.61 523.026C1376.61 523.026 1395.52 522.192 1401.65 530.022C1407.78 537.853 1405.44 555.661 1405.44 555.661" fill="#F3BC92"/>
<path d="M1352.03 721.595C1352.03 721.595 1358.32 729.278 1357 731.769C1355.68 734.261 1353.97 737.09 1353.97 737.09L1357.95 741.196L1372.5 732.799L1373.59 721.736L1367.26 712.29L1352.03 721.595Z" fill="#EBEBF0"/>
<path d="M1357.35 751.172C1360.59 748.879 1367.13 739.281 1367.13 739.281L1368.94 741.12L1380.64 731.582L1373.59 721.736C1373.59 721.736 1368.02 733.136 1355.43 734.169C1355.43 734.169 1352.06 738.671 1347.22 744.108C1339.8 748.898 1333.36 753.991 1334.47 755.373C1336.45 757.822 1352.1 754.764 1357.35 751.172Z" fill="#303541"/>
<path d="M1352.02 729.272L1373.66 715.818L1339.89 674.022C1339.89 674.022 1389.84 695.821 1403.43 685.38C1413.37 676.676 1413.99 655.922 1413.99 655.922C1413.99 655.922 1307.16 638.512 1300.74 651.996C1294.32 665.481 1352.02 729.272 1352.02 729.272Z" fill="#C9CBD4"/>
<path d="M1356.13 589.397L1344.37 611.772L1363.52 622.955L1371.27 604.239L1356.13 589.397Z" fill="#FA4338"/>
<path d="M1391.45 647.062C1391.45 647.062 1433.65 649.74 1439.04 643.109C1444.43 636.477 1432.8 607.951 1432.8 607.951L1413.85 613.746L1420.28 631.392L1391.37 639.486" fill="#F3BC92"/>
<path d="M1391.35 639.486C1391.35 639.486 1384.47 634.359 1378.53 637.212C1372.58 640.065 1368.96 646.48 1372.17 646.443C1375.37 646.406 1391.45 647.056 1391.45 647.056" fill="#F3BC92"/>
<path d="M1420.99 584.604C1433.21 595.882 1438.14 619.525 1438.14 619.525L1414.34 627.772L1406.57 606.176L1420.99 584.604Z" fill="#FA4338"/>
<path d="M1375.05 550.274C1375.11 551.76 1374.44 553.011 1373.56 553.09C1372.68 553.17 1371.93 552.027 1371.86 550.556C1371.79 549.085 1372.47 547.819 1373.35 547.742C1374.23 547.666 1374.99 548.806 1375.05 550.286" fill="#42210B"/>
<path d="M1387.33 549.403C1387.4 550.89 1386.72 552.14 1385.84 552.22C1384.97 552.299 1384.21 551.156 1384.14 549.673C1384.08 548.19 1384.76 546.936 1385.64 546.856C1386.52 546.777 1387.27 547.923 1387.33 549.403Z" fill="#42210B"/>
<path d="M1383.14 543.099C1384.9 542.514 1386.82 542.538 1388.63 542.845C1389.29 542.957 1389.95 543.109 1390.59 543.298C1390.43 543.249 1390.72 543.338 1390.77 543.357C1390.81 543.375 1390.92 543.406 1391 543.43L1391.21 543.507C1392.09 543.844 1392.69 542.498 1391.82 542.158C1388.97 541.064 1385.53 540.761 1382.63 541.723C1381.73 542.03 1382.26 543.396 1383.16 543.099" fill="#42210B"/>
<path d="M1376.54 541.975C1374.55 541.905 1372.57 542.299 1370.76 543.127C1370.66 543.152 1370.56 543.199 1370.48 543.264C1370.4 543.33 1370.33 543.413 1370.28 543.507C1370.23 543.602 1370.2 543.705 1370.2 543.811C1370.19 543.917 1370.21 544.023 1370.25 544.121C1370.29 544.219 1370.35 544.307 1370.43 544.38C1370.51 544.452 1370.6 544.507 1370.7 544.54C1370.8 544.573 1370.91 544.585 1371.02 544.573C1371.12 544.561 1371.22 544.527 1371.31 544.472C1372.88 543.795 1374.59 543.323 1376.32 543.418C1376.51 543.442 1376.7 543.391 1376.86 543.277C1377.01 543.164 1377.12 542.995 1377.15 542.805C1377.18 542.613 1377.13 542.419 1377.02 542.263C1376.9 542.106 1376.73 542.001 1376.54 541.969" fill="#42210B"/>
<path d="M1382.12 555.361C1381.55 555.435 1381.09 555.471 1380.59 555.499C1380.14 555.527 1379.7 555.527 1379.26 555.499C1379.17 555.499 1379.08 555.499 1378.99 555.474L1378.86 555.456H1378.89L1378.7 555.398C1378.58 555.361 1378.73 555.398 1378.74 555.419C1378.67 555.324 1378.81 555.493 1378.83 555.52C1378.89 555.62 1378.92 555.731 1378.93 555.845C1378.93 555.766 1378.85 556.032 1378.91 555.934C1378.95 555.851 1378.98 555.763 1379.01 555.674C1379.11 555.41 1379.23 555.153 1379.34 554.895C1379.73 553.976 1380.08 553.075 1380.38 552.137C1380.89 550.526 1381.26 548.876 1381.49 547.203C1381.62 546.262 1380.15 546.185 1380.02 547.117C1379.63 549.713 1378.9 552.245 1377.85 554.647C1377.63 555.14 1377.28 555.744 1377.58 556.277C1378.02 557.065 1379.29 556.995 1380.06 556.976C1380.85 556.956 1381.64 556.895 1382.43 556.792C1383.37 556.673 1383.04 555.232 1382.12 555.352" fill="#42210B"/>
<path d="M1380.71 563.461C1381.95 563.41 1383.17 563.105 1384.29 562.567C1385.41 562.028 1386.41 561.267 1387.22 560.329C1387.33 560.164 1387.38 559.963 1387.35 559.767C1387.33 559.57 1387.23 559.39 1387.08 559.261C1386.93 559.131 1386.73 559.062 1386.53 559.066C1386.34 559.07 1386.14 559.146 1386 559.281C1383.88 561.785 1380.75 561.837 1380.72 561.837C1380.5 561.837 1380.3 561.922 1380.14 562.074C1379.99 562.227 1379.91 562.433 1379.91 562.649C1379.91 562.864 1379.99 563.071 1380.14 563.223C1380.3 563.375 1380.5 563.461 1380.72 563.461H1380.71Z" fill="#42210B"/>
<g style="mix-blend-mode:multiply">
<g style="mix-blend-mode:multiply">
<path d="M1313.35 681.239L1322.85 694.239C1322.85 694.239 1327.8 674.12 1328.98 672.676C1330.16 671.233 1348.09 662.931 1348.09 662.931C1348.09 662.931 1325.5 664.711 1324.08 665.309C1322.66 665.906 1313.35 681.239 1313.35 681.239Z" fill="#E4E4E4"/>
</g>
</g>
<path d="M1406.22 646.219H1362.12V651.959H1406.22V646.219Z" fill="#8A8F9E"/>
<path d="M1382.16 651.956L1367.94 604.288C1367.67 603.398 1367.12 602.619 1366.37 602.067C1365.62 601.515 1364.71 601.219 1363.78 601.224H1304.94C1304.61 601.221 1304.28 601.297 1303.98 601.444C1303.68 601.591 1303.42 601.805 1303.22 602.071C1303.02 602.336 1302.88 602.645 1302.82 602.972C1302.76 603.3 1302.77 603.637 1302.86 603.957L1317.18 651.956H1382.16Z" fill="#8A8F9E"/>
<path d="M1340.25 633.087C1343.84 633.087 1346.75 630.178 1346.75 626.59C1346.75 623.002 1343.84 620.093 1340.25 620.093C1336.66 620.093 1333.75 623.002 1333.75 626.59C1333.75 630.178 1336.66 633.087 1340.25 633.087Z" fill="#7D8392"/>
<path d="M1497.91 704.949H1509.59C1509.59 704.949 1515.45 671.6 1486.02 657L1497.91 704.949" fill="#00762A"/>
<path d="M1517.89 704.949C1517.89 704.949 1521.97 704.949 1522.32 698.981C1522.46 696.489 1520.15 692.351 1520.95 689.106C1521.61 686.428 1526.61 684.721 1527.92 681.629C1529.58 677.734 1528.04 671.169 1531.1 666.769C1507.54 677.813 1507.54 704.95 1507.54 704.95H1517.89" fill="#21944E"/>
<path d="M1492.21 704.949H1503.92C1503.92 704.949 1500.32 681.445 1479 675.275L1492.21 704.949" fill="#21944E"/>
<path d="M1524.89 703.488H1485.17C1485.17 703.488 1484.6 745.468 1505.03 745.468C1525.46 745.468 1524.89 703.488 1524.89 703.488Z" fill="#4141A2"/>
<path d="M1524.89 703.488H1516.49C1518.95 735.239 1505.03 745.468 1505.03 745.468C1522.67 745.468 1524.65 714.155 1524.87 705.616C1524.9 704.268 1524.89 703.488 1524.89 703.488Z" fill="#31317C"/>
<rect x="1485.08" y="736.762" width="39.9038" height="4.27679" fill="#E0AF7F"/>
<path d="M1486.01 712.365H1486.23C1487.33 712.365 1488.21 713.253 1488.21 714.349V754.161C1488.21 755.258 1487.33 756.146 1486.23 756.146H1486.01C1484.92 756.146 1484.03 755.258 1484.03 754.162V714.349C1484.03 713.253 1484.92 712.365 1486.01 712.365Z" fill="#E0AF7F"/>
<path d="M1523.84 712.365H1524.06C1525.15 712.365 1526.04 713.254 1526.04 714.35V754.161C1526.04 755.258 1525.15 756.146 1524.06 756.146H1523.84C1522.75 756.146 1521.86 755.258 1521.86 754.162V714.349C1521.86 713.253 1522.75 712.365 1523.84 712.365Z" fill="#E0AF7F"/>
<path d="M1141.25 732.221C1141.55 738.34 1168.45 735.887 1168.45 735.887L1176.45 725.328C1176.45 725.328 1140.97 726.115 1141.25 732.221" fill="#AD4B19"/>
<path d="M1174.4 712.155C1174.4 712.155 1206.4 700.357 1224.06 708.157C1241.72 715.956 1233.92 735.127 1233.92 735.127L1166.33 735.927L1174.39 712.155" fill="#AD4B19"/>
<path d="M1169.83 725.603L1166.49 735.461H1162.77C1162.77 735.461 1156.17 731.727 1156.74 726.716C1161.34 726.151 1166.13 725.808 1169.83 725.603" fill="#8A3C14"/>
<path d="M1198.45 706.277C1198.45 706.277 1200.99 711.263 1200.85 720.048C1207.76 718.069 1215.12 718.359 1221.86 720.875L1213.64 735.367L1211.39 735.393L1208.03 735.433L1185.91 735.326L1185.74 735.46H1166.49L1169.83 725.603L1171.23 721.488L1193.71 707.022C1194.91 706.802 1196.14 706.597 1197.39 706.412L1198.44 706.277" fill="#8A3C14"/>
<path d="M1195.55 731.807C1195.85 737.913 1215.88 735.807 1215.88 735.807L1229.21 718.769C1229.21 718.769 1217.31 712.942 1211.18 725.994C1203.78 726.728 1195.39 728.354 1195.55 731.807Z" fill="#AD4B19"/>
<path d="M1237.76 734H1144.24C1138.59 734 1134 738.93 1134 745.011V745.054C1134 751.135 1138.59 756.065 1144.24 756.065H1237.76C1243.41 756.065 1248 751.135 1248 745.054V745.01C1248 738.929 1243.41 734 1237.76 734Z" fill="#B5DFEB"/>
<path d="M1159.62 715.436C1159.62 715.436 1156.5 725.634 1154.76 724.568C1153.01 723.502 1147.18 712.316 1148.09 710.17C1148.99 708.023 1159.17 703.837 1162.33 705.97L1159.62 715.436Z" fill="#AD4B19"/>
<path d="M1156.73 720.155C1158.22 728.381 1167.39 733.687 1174.47 732.407C1177.65 731.707 1180.54 730.078 1182.78 727.727C1186.23 724.261 1188.48 719.382 1187.6 714.529C1186.11 706.317 1181.3 700.291 1169.45 702.451C1157.6 704.611 1155.24 711.929 1156.73 720.155Z" fill="#AD4B19"/>
<path d="M1159.71 717.96C1159.94 717.96 1160.14 717.801 1160.19 717.576C1160.2 717.545 1160.95 714.476 1162.89 714.126C1164.82 713.787 1166.61 716.38 1166.62 716.407C1166.72 716.555 1166.89 716.639 1167.07 716.627C1167.25 716.615 1167.41 716.509 1167.49 716.349C1167.57 716.188 1167.55 715.998 1167.45 715.85C1167.37 715.72 1165.29 712.667 1162.71 713.143C1160.13 713.619 1159.25 717.194 1159.22 717.347C1159.16 717.616 1159.32 717.884 1159.59 717.948L1159.71 717.96Z" fill="#471F05"/>
<path d="M1172.78 715.628C1173.01 715.628 1173.22 715.469 1173.27 715.244C1173.28 715.213 1174.02 712.144 1175.96 711.794C1177.9 711.444 1179.68 714.048 1179.7 714.075C1179.85 714.304 1180.16 714.365 1180.39 714.212C1180.62 714.058 1180.68 713.747 1180.53 713.518C1180.44 713.388 1178.37 710.335 1175.79 710.811C1173.2 711.287 1172.33 714.862 1172.3 715.016C1172.23 715.284 1172.4 715.553 1172.67 715.616L1172.78 715.628Z" fill="#471F05"/>
<path d="M1172.06 717.902C1171.36 717.209 1166.3 718.049 1165.82 719.036C1165.34 720.022 1168.4 722.728 1169.68 722.485C1170.96 722.242 1172.77 718.582 1172.06 717.902Z" fill="#471F05"/>
<path d="M1183.23 712.769C1183.23 712.769 1187.58 722.635 1189.21 721.381C1190.83 720.128 1195.26 708.411 1194.15 706.358C1193.05 704.305 1182.46 701.185 1179.49 703.625L1183.23 712.769Z" fill="#AD4B19"/>
<path d="M1170.31 730.138C1170.92 730.138 1171.52 730.085 1172.12 729.98C1175.77 729.314 1178.57 726.387 1179.09 722.718C1179.13 722.444 1178.94 722.192 1178.66 722.153C1178.39 722.118 1178.14 722.307 1178.1 722.578C1177.64 725.82 1175.16 728.406 1171.94 728.996C1168.09 729.665 1164.56 727.939 1164.07 725.149C1163.88 723.711 1164.4 722.27 1165.46 721.281C1166.75 720.002 1168.42 719.164 1170.21 718.888C1170.39 718.858 1170.54 718.735 1170.6 718.568C1170.66 718.4 1170.63 718.212 1170.51 718.075C1170.4 717.938 1170.22 717.873 1170.04 717.903C1168.04 718.216 1166.18 719.156 1164.74 720.589C1163.45 721.806 1162.84 723.57 1163.09 725.321C1163.59 728.189 1166.66 730.137 1170.31 730.138Z" fill="#471F05"/>
<path d="M1229.34 727.115C1223.82 745.779 1208.22 739.885 1208.79 745.779C1209.36 751.672 1235.65 753.617 1235.65 726.248L1229.34 727.115Z" fill="#AD4B19"/>
<path d="M1169.06 698.264H1164.18C1163.91 698.265 1163.67 698.105 1163.57 697.86C1163.46 697.614 1163.51 697.33 1163.7 697.137L1167.5 693.174H1164.18C1163.82 693.162 1163.54 692.867 1163.54 692.507C1163.54 692.147 1163.82 691.852 1164.18 691.84H1169.06C1169.33 691.841 1169.57 692 1169.67 692.246C1169.78 692.491 1169.73 692.775 1169.54 692.968L1165.74 696.932H1169.06C1169.43 696.932 1169.73 697.23 1169.73 697.598C1169.73 697.966 1169.43 698.264 1169.06 698.264Z" fill="#8A8F9E"/>
<path d="M1164.94 687.812H1157.78C1157.52 687.812 1157.28 687.652 1157.17 687.407C1157.07 687.162 1157.12 686.878 1157.3 686.685L1163.38 680.334H1157.78C1157.42 680.322 1157.14 680.027 1157.14 679.667C1157.14 679.307 1157.42 679.012 1157.78 679H1164.94C1165.21 679 1165.45 679.16 1165.55 679.405C1165.66 679.65 1165.61 679.934 1165.42 680.127L1159.34 686.48H1164.94C1165.31 686.48 1165.61 686.778 1165.61 687.146C1165.61 687.514 1165.31 687.812 1164.94 687.812Z" fill="#8A8F9E"/>
<path d="M1228.94 726.588C1229.26 726.599 1229.57 726.526 1229.85 726.377C1230.3 726.099 1230.56 725.59 1230.52 725.061C1230.55 724.384 1230.28 723.728 1229.77 723.283C1229 722.781 1228.07 722.597 1227.18 722.77C1226.9 722.821 1226.73 723.082 1226.78 723.353C1226.83 723.625 1227.09 723.803 1227.36 723.752C1227.97 723.629 1228.6 723.736 1229.13 724.054C1229.41 724.312 1229.55 724.683 1229.52 725.06C1229.52 725.413 1229.39 725.486 1229.35 725.512C1228.8 725.831 1227.11 725.17 1226.14 724.624C1225.9 724.489 1225.6 724.574 1225.46 724.815C1225.32 725.056 1225.41 725.361 1225.65 725.496C1226.66 726.093 1227.78 726.465 1228.94 726.588Z" fill="#471F05"/>
<path d="M1225.89 721.562L1226 721.55C1226.12 721.525 1228.83 720.912 1229.48 719.202C1229.77 718.319 1229.58 717.35 1228.97 716.648C1228.55 715.899 1227.74 715.446 1226.88 715.474C1226.15 715.6 1225.49 715.986 1225.03 716.559C1225.1 715.842 1224.95 715.12 1224.6 714.49C1224.25 713.947 1223.65 713.611 1223 713.588C1222.21 713.493 1221.42 713.742 1220.83 714.272C1220.12 715.057 1219.72 716.078 1219.72 717.138C1219.72 717.414 1219.94 717.637 1220.22 717.638C1220.49 717.638 1220.71 717.415 1220.71 717.14C1220.72 716.356 1221 715.599 1221.51 715.003C1221.9 714.665 1222.41 714.512 1222.92 714.584C1223.26 714.583 1223.58 714.751 1223.76 715.032C1224.36 715.963 1223.79 718.134 1223.54 718.822C1223.45 719.074 1223.57 719.355 1223.82 719.457C1224.07 719.559 1224.36 719.446 1224.47 719.202C1224.78 718.525 1225.92 716.569 1226.97 716.469C1227.12 716.455 1227.57 716.416 1228.15 717.229C1228.56 717.662 1228.71 718.274 1228.55 718.844C1228.16 719.848 1226.42 720.432 1225.79 720.573C1225.54 720.627 1225.37 720.861 1225.4 721.114C1225.42 721.367 1225.64 721.56 1225.89 721.56L1225.89 721.562Z" fill="#471F05"/>
<path d="M1245.44 738.006C1249.35 738.738 1260.57 737.215 1260.57 737.215L1260.51 739.793L1274.3 741.156L1277.98 729.076C1277.98 729.076 1265.61 733.574 1256.11 725.26C1256.11 725.26 1223.39 725.692 1223.01 728.812C1222.63 731.932 1235.18 736.087 1245.44 738.006Z" fill="#303541"/>
</g>
<path d="M1409.48 549.064C1407.85 552.75 1405.61 556.14 1402.86 559.099C1402.12 558.323 1401.36 557.333 1400.59 547.076C1397.97 545.009 1395.01 551.174 1394.48 550.371C1393.74 549.595 1394.25 533.575 1394.25 533.575C1394.25 533.575 1377.88 532.453 1371.48 529.532C1376.61 519.67 1398.59 513.245 1409.84 531.769C1412.55 536.412 1411.36 544.74 1409.48 549.054" fill="#AD4B19"/>
<path d="M1405.68 525.796L1394.23 533.373C1393.02 534.53 1391.58 535.416 1390 535.971C1388.42 536.525 1386.74 536.737 1385.08 536.59C1381.96 535.887 1379.08 534.357 1376.77 532.164C1375.42 533.785 1373.57 534.909 1371.51 535.358C1370.79 535.396 1370.08 535.202 1369.49 534.804C1368.9 534.407 1368.45 533.827 1368.22 533.154L1367.56 538.619C1365.8 536.907 1364.57 534.731 1364.01 532.347C1363.63 529.158 1367.17 527.885 1367.25 526.797C1367.13 524.724 1367.73 522.674 1368.96 520.992C1371.17 519.771 1373.78 519.468 1376.22 520.151C1376.22 520.151 1377.01 517.686 1378.25 517.112C1379.69 516.514 1382 517.753 1382 517.753C1382.43 516.877 1383.08 516.129 1383.89 515.582C1384.7 515.035 1385.64 514.708 1386.62 514.634C1388.84 514.924 1390.92 515.887 1392.57 517.392C1393.05 516.966 1393.63 516.665 1394.25 516.517C1394.88 516.369 1395.53 516.378 1396.15 516.544C1396.73 516.744 1397.22 517.127 1397.55 517.635C1397.89 518.143 1398.04 518.746 1397.99 519.351C1400.11 519.147 1402.24 519.494 1404.17 520.358C1404.83 521.088 1405.3 521.958 1405.56 522.901C1405.82 523.843 1405.86 524.832 1405.67 525.792" fill="#AD4B19"/>
<g clip-path="url(#clip2_2507_21965)">
<path d="M1026.85 672C1016.47 663.69 988.85 660.2 988.02 686.59C1010.45 704.42 1017.28 673.12 1026.85 672Z" fill="#009848"/>
<path d="M1008 622C990.48 621.64 958.8 640.16 979.11 668.44C1016.85 669 998.87 630.83 1008 622Z" fill="#009848"/>
<path d="M929 661.38C940.75 653.75 970.07 653 968.2 680.73C942.82 697.05 938.92 663.52 929 661.38Z" fill="#009848"/>
<path d="M976.18 701.87C976.18 701.87 973.12 671.47 944.57 664.65" stroke="#2B743A" strokeWidth="2.16" strokeLinecap="round" strokeLinejoin="round"/>
<path d="M981.56 701.87C981.56 701.87 969.77 663.46 993.83 633.06" stroke="#2B743A" strokeWidth="2.16" strokeLinecap="round" strokeLinejoin="round"/>
<path d="M981.56 701.87C981.56 701.87 985.97 676.73 1011.56 670.87" stroke="#2B743A" strokeWidth="2.16" strokeLinecap="round" strokeLinejoin="round"/>
<path d="M997 702C997 702 995.55 737.739 987.408 756H967.622C959.48 737.739 958 702 958 702H997Z" fill="#D3D236"/>
</g>
<path d="M1668.23 489.466V482.044C1668.25 481.256 1667.96 480.493 1667.41 479.922C1666.87 479.351 1666.12 479.019 1665.33 479H1598.9C1598.12 479.019 1597.37 479.351 1596.82 479.922C1596.28 480.493 1595.98 481.256 1596 482.044V489.466C1595.98 490.255 1596.28 491.018 1596.82 491.589C1597.37 492.16 1598.12 492.491 1598.9 492.511H1600.69V525.229H1598.9C1598.12 525.249 1597.37 525.58 1596.82 526.151C1596.28 526.722 1595.98 527.485 1596 528.274V535.696C1595.98 536.484 1596.28 537.248 1596.82 537.818C1597.37 538.389 1598.12 538.721 1598.9 538.74H1600.69V556.057H1598.9C1598.12 556.076 1597.37 556.408 1596.82 556.978C1596.28 557.549 1595.98 558.313 1596 559.101V566.523C1595.98 567.311 1596.28 568.075 1596.82 568.646C1597.37 569.216 1598.12 569.548 1598.9 569.567H1600.69L1617.22 582.784H1647L1663.54 569.559H1665.33C1666.12 569.539 1666.86 569.208 1667.41 568.637C1667.95 568.066 1668.25 567.303 1668.23 566.514V559.092C1668.25 558.304 1667.95 557.541 1667.41 556.971C1666.86 556.4 1666.12 556.068 1665.33 556.048H1663.53V538.732H1665.32C1666.11 538.712 1666.86 538.381 1667.4 537.81C1667.95 537.239 1668.24 536.476 1668.22 535.687V528.265C1668.24 527.477 1667.95 526.713 1667.4 526.143C1666.86 525.572 1666.11 525.24 1665.32 525.221H1663.53V492.511H1665.32C1666.11 492.491 1666.86 492.16 1667.4 491.589C1667.95 491.018 1668.24 490.255 1668.22 489.466" fill="#AAE0ED"/>
<path d="M1663.54 569.568H1600.68L1615.86 581.705H1627.98L1661.06 571.551L1663.54 569.568Z" fill="#8FBECF"/>
<path d="M1663.54 538.74H1600.68V544.58L1663.54 541.662V538.74Z" fill="#8FBECF"/>
<path d="M1663.54 492.751H1600.68V498.594L1663.54 495.676V492.751Z" fill="#8FBECF"/>
<path d="M1665.25 754.879H1598.99V589.728C1598.99 588.675 1599.2 587.632 1599.61 586.659C1600.01 585.686 1600.6 584.802 1601.35 584.058C1602.09 583.314 1602.98 582.724 1603.95 582.322C1604.93 581.92 1605.97 581.714 1607.03 581.716H1657.2C1658.26 581.714 1659.3 581.92 1660.28 582.321C1661.25 582.723 1662.14 583.313 1662.88 584.057C1663.63 584.801 1664.22 585.685 1664.62 586.658C1665.03 587.631 1665.24 588.674 1665.24 589.728V754.879" fill="#F6F6F9"/>
<path d="M1654 599.92H1610V662.878H1654V599.92Z" fill="#989FAD"/>
<path d="M1654.05 599.92H1610V615.328L1654.05 604.592V599.92Z" fill="#7D8392"/>
<g clip-path="url(#clip3_2507_21965)">
<path d="M1637.84 662.999H1625.8C1625.56 662.999 1625.33 662.908 1625.16 662.745C1624.98 662.581 1624.87 662.356 1624.85 662.116L1623 639H1640.65L1638.8 662.116C1638.78 662.356 1638.67 662.581 1638.5 662.745C1638.32 662.908 1638.09 662.999 1637.85 662.999" fill="#F5F5F8"/>
<path d="M1624.04 652.012L1624.85 662.116C1624.87 662.356 1624.97 662.581 1625.15 662.745C1625.33 662.909 1625.56 662.999 1625.8 662.999H1637.84C1638.08 662.999 1638.32 662.909 1638.49 662.745C1638.67 662.581 1638.78 662.356 1638.79 662.116L1639.6 652.012H1624.04Z" fill="#C5EDF5"/>
<path d="M1639.3 644.432H1637.14L1637.62 656.552L1637.67 657.899L1637.77 660.48C1637.77 660.492 1637.77 660.504 1637.78 660.516C1637.78 660.527 1637.79 660.537 1637.8 660.545C1637.81 660.554 1637.82 660.56 1637.83 660.565C1637.84 660.569 1637.86 660.571 1637.87 660.57C1637.89 660.57 1637.92 660.561 1637.93 660.544C1637.95 660.527 1637.96 660.504 1637.96 660.48L1639.3 644.432" fill="white"/>
</g>
<path d="M387.246 547.282L425.817 573.64L460.736 570.953L463.89 560.081L430.297 561.102L409.343 545.358L394.345 534.095L387.246 547.282Z" fill="#B5DFEB"/>
<g style="mix-blend-mode:multiply" opacity="0.3">
<g style="mix-blend-mode:multiply" opacity="0.3">
<path d="M419.037 569.049C419.037 569.049 416.753 549.043 406.401 542.137L405.269 559.388L419.037 569.049Z" fill="#4141A2"/>
</g>
</g>
<path d="M380.114 532.828L371.669 586.514C371.669 586.514 351.092 585.544 348.895 581.42C346.699 577.296 355.381 528.396 380.114 532.828Z" fill="#FFB0C5"/>
<path d="M348.505 557.334L344.152 573.355C344.013 573.871 344.076 574.422 344.328 574.894C344.58 575.366 345.003 575.724 345.509 575.896L351.145 577.795L358.335 557.861L351.089 555.882C350.554 555.733 349.982 555.803 349.497 556.075C349.013 556.347 348.656 556.8 348.505 557.334Z" fill="#FFB0C5"/>
<path d="M410.054 511.473C406.865 513.013 399.104 509.495 399.104 509.495C399.104 509.495 396.053 519.765 399.718 526.699C399.718 526.699 395.547 537.78 388.847 533.905C382.147 530.031 381.961 518.53 381.961 518.53L384.003 507.144C384.003 507.144 382.357 503.629 380.343 501.425C380.343 501.425 374.803 482.088 380.739 473.919C386.675 465.751 405.915 465.893 405.915 465.893C407.924 466.605 409.733 467.788 411.19 469.344C412.647 470.9 413.709 472.782 414.288 474.834C416.267 481.87 410.133 492.437 418.879 497.705C418.879 497.705 410.964 511.018 410.058 511.462" fill="#D06E31"/>
<path d="M408.84 467.365C408.84 467.365 398.551 475.205 399.038 491.218C397.934 493.644 398.436 501.97 380.351 501.408C377.38 497.993 363.933 485.336 373.557 468.956C383.181 452.575 408.84 467.365 408.84 467.365Z" fill="#6E2F0F"/>
<path d="M411.802 492.445C411.687 493.707 411.09 494.685 410.477 494.625C409.863 494.566 409.448 493.501 409.566 492.251C409.685 491 410.275 490.011 410.896 490.07C411.517 490.129 411.917 491.194 411.802 492.445Z" fill="#42210B"/>
<path d="M411.49 495.041C412.072 494.554 412.483 493.612 412.586 492.516C412.748 490.743 412.068 489.382 410.968 489.283C410.77 489.264 410.571 489.286 410.383 489.348C410.194 489.409 410.02 489.508 409.871 489.639C409.286 490.126 408.878 491.068 408.779 492.16C408.68 493.252 408.906 494.257 409.397 494.843C409.517 494.998 409.667 495.127 409.838 495.222C410.01 495.318 410.199 495.377 410.394 495.397H410.52C410.876 495.398 411.22 495.271 411.49 495.041ZM411.023 492.374C410.936 493.319 410.576 493.798 410.627 493.873C410.524 493.794 410.255 493.26 410.342 492.29C410.425 491.78 410.557 491.279 410.738 490.794C410.841 490.893 411.11 491.428 411.023 492.374Z" fill="#42210B"/>
<path d="M413.129 483.94C411.347 483.704 409.535 483.903 407.846 484.517C406.984 484.804 406.153 485.175 405.365 485.626C404.518 486.136 405.29 487.47 406.156 486.955C406.338 486.849 406.532 486.75 406.722 486.655C407.191 486.415 407.676 486.208 408.174 486.037C409.622 485.468 411.186 485.258 412.733 485.424C412.928 485.469 413.132 485.439 413.305 485.34C413.478 485.241 413.607 485.08 413.667 484.89C413.715 484.693 413.686 484.485 413.586 484.309C413.486 484.133 413.323 484.003 413.129 483.944" fill="#42210B"/>
<path d="M368.32 593.483L381.961 518.529C381.961 518.529 384.228 529.076 399.717 526.718L409.547 544.962L417.129 593.364L368.32 593.483Z" fill="#B5DFEB"/>
<path d="M374.822 573.2C373.481 573.214 372.141 573.111 370.818 572.892C370.27 572.787 369.787 572.469 369.474 572.007C369.161 571.546 369.045 570.979 369.15 570.432C369.255 569.885 369.573 569.401 370.034 569.089C370.495 568.776 371.062 568.659 371.609 568.764C371.692 568.764 380.315 570.276 387.078 565.289C391.653 561.929 394.45 556.345 395.388 548.699C396.021 541.611 394.925 536.988 392.222 535.401C388.234 533.07 380.647 537.115 378.305 538.717C378.077 538.88 377.82 538.996 377.547 539.058C377.275 539.119 376.992 539.126 376.717 539.078C376.442 539.029 376.179 538.926 375.944 538.775C375.709 538.623 375.507 538.426 375.349 538.196C375.191 537.965 375.08 537.705 375.024 537.431C374.968 537.158 374.967 536.875 375.021 536.601C375.075 536.327 375.183 536.066 375.34 535.834C375.496 535.602 375.697 535.404 375.93 535.251C377.082 534.459 387.367 527.688 394.348 531.776C398.617 534.281 400.374 540.122 399.571 549.142C398.475 558.074 395.095 564.636 389.528 568.709C384.375 572.46 378.582 573.2 374.822 573.2Z" fill="#FFB0C5"/>
<path d="M475.444 737.858L471.182 745.449L462.983 749.403L407.897 651.641L434.458 651.364L467.656 741.147L475.444 737.858Z" fill="#D06E31"/>
<path d="M389.866 673.891L336.787 737.451L342.288 741.963L335.454 746.142L326.407 737.712L368.75 669.447C368.75 669.447 366.966 659.398 365.438 646.469C363.459 629.696 394.326 647.058 394.326 647.058L389.866 673.891Z" fill="#D06E31"/>
<path d="M358.637 754.643H342.08L321.229 742.809L327.279 733.481C327.279 733.481 332.119 741.864 341.47 741.345L346.448 745.022C356.516 745.184 358.637 754.643 358.637 754.643Z" fill="#FFB0C5"/>
<path d="M495.746 738.46L463.328 754.643L459.438 746.49C459.438 746.49 467.214 749.703 472.299 739.239L480.767 735.519C489.853 731.19 495.746 738.46 495.746 738.46Z" fill="#FFB0C5"/>
<path d="M368.32 593.483C358.613 619.604 368.756 669.446 368.756 669.446L334.948 719.277L356.769 728.775L393.354 676.301L395.028 632.3L441.672 724.968L464.514 719.293L417.129 593.353L368.32 593.483Z" fill="#4141A2"/>
<path d="M417.94 479.543L398.652 481.328C398.652 481.328 389.23 467.733 404.865 465.738C420.5 463.744 417.94 479.543 417.94 479.543Z" fill="#6E2F0F"/>
<path d="M375.762 466.93C375.762 466.93 371.089 451.645 357.084 457.226C342.77 464.124 358.053 481.727 351.868 494.103C369.304 490.098 375.762 466.93 375.762 466.93Z" fill="#6E2F0F"/>
<path d="M321.391 652.175C311.882 652.175 302.586 654.996 294.679 660.279C286.772 665.563 280.61 673.073 276.97 681.859C273.331 690.646 272.379 700.314 274.234 709.642C276.09 718.969 280.669 727.537 287.393 734.262C294.117 740.987 302.685 745.567 312.011 747.422C321.338 749.278 331.006 748.325 339.791 744.686C348.577 741.046 356.086 734.883 361.369 726.976C366.652 719.068 369.472 709.771 369.472 700.261C369.458 687.512 364.387 675.29 355.374 666.275C346.36 657.261 334.139 652.19 321.391 652.175ZM321.391 645.871C332.148 645.869 342.664 649.058 351.608 655.033C360.553 661.009 367.525 669.503 371.642 679.441C375.76 689.38 376.838 700.316 374.74 710.867C372.643 721.418 367.464 731.11 359.858 738.717C352.253 746.325 342.562 751.506 332.012 753.605C321.462 755.704 310.527 754.628 300.589 750.511C290.651 746.395 282.157 739.424 276.181 730.479C270.204 721.534 267.014 711.018 267.014 700.261C267.014 685.837 272.743 672.004 282.941 661.804C293.138 651.604 306.969 645.873 321.391 645.871Z" fill="#5C6270"/>
<path d="M491.616 652.176C482.107 652.176 472.811 654.996 464.904 660.279C456.997 665.563 450.835 673.073 447.195 681.86C443.556 690.646 442.604 700.314 444.459 709.642C446.315 718.97 450.894 727.538 457.618 734.263C464.342 740.987 472.91 745.567 482.236 747.422C491.563 749.278 501.231 748.326 510.016 744.686C518.802 741.047 526.311 734.883 531.594 726.976C536.878 719.068 539.697 709.771 539.697 700.261C539.685 687.512 534.615 675.288 525.601 666.273C516.587 657.258 504.364 652.188 491.616 652.176ZM491.616 645.871C502.373 645.868 512.89 649.055 521.835 655.03C530.781 661.004 537.754 669.498 541.873 679.436C545.992 689.374 547.071 700.311 544.974 710.862C542.877 721.414 537.699 731.107 530.094 738.715C522.489 746.323 512.798 751.505 502.248 753.605C491.698 755.705 480.762 754.628 470.824 750.512C460.885 746.396 452.391 739.425 446.414 730.48C440.437 721.535 437.247 711.019 437.247 700.261C437.247 685.839 442.975 672.007 453.171 661.807C463.367 651.607 477.195 645.875 491.616 645.871Z" fill="#5C6270"/>
<path d="M394.682 726.365C390.436 726.299 386.386 724.565 383.407 721.539C380.428 718.512 378.758 714.436 378.758 710.189C378.758 705.942 380.428 701.865 383.407 698.838C386.386 695.812 390.436 694.078 394.682 694.012C395.102 694.012 395.505 694.179 395.802 694.475C396.098 694.772 396.265 695.175 396.265 695.595C396.265 696.015 396.098 696.417 395.802 696.714C395.505 697.011 395.102 697.178 394.682 697.178C391.228 697.178 387.916 698.55 385.473 700.993C383.031 703.435 381.659 706.748 381.659 710.202C381.659 713.657 383.031 716.97 385.473 719.412C387.916 721.855 391.228 723.227 394.682 723.227C395.102 723.227 395.505 723.394 395.802 723.691C396.098 723.988 396.265 724.39 396.265 724.81C396.265 725.23 396.098 725.633 395.802 725.929C395.505 726.226 395.102 726.393 394.682 726.393V726.365Z" fill="#C9CBD4"/>
<path d="M491.621 701.832C491.301 701.831 490.988 701.733 490.724 701.551C490.461 701.369 490.259 701.111 490.145 700.811L452.725 600.849C452.637 600.61 452.608 600.354 452.64 600.102C452.673 599.85 452.765 599.609 452.91 599.401C453.055 599.192 453.247 599.021 453.472 598.902C453.697 598.784 453.947 598.721 454.201 598.719H477.945C478.365 598.719 478.767 598.886 479.064 599.183C479.361 599.48 479.528 599.883 479.528 600.303C479.528 600.722 479.361 601.125 479.064 601.422C478.767 601.719 478.365 601.886 477.945 601.886H456.457L493.097 699.707C493.184 699.945 493.212 700.201 493.18 700.452C493.147 700.704 493.055 700.944 492.91 701.152C492.765 701.36 492.573 701.531 492.348 701.649C492.124 701.768 491.875 701.83 491.621 701.832Z" fill="#C9CBD4"/>
<path d="M395.152 711.766C394.784 711.764 394.429 711.634 394.147 711.398C393.864 711.163 393.673 710.837 393.605 710.475L372.714 602.432C372.676 602.039 372.786 601.647 373.022 601.331C373.258 601.016 373.603 600.799 373.99 600.725C374.377 600.65 374.777 600.722 375.114 600.927C375.45 601.133 375.698 601.456 375.809 601.834L396.699 709.878C396.742 710.106 396.734 710.34 396.677 710.565C396.619 710.79 396.512 710.999 396.365 711.178C396.217 711.357 396.032 711.501 395.822 711.601C395.613 711.7 395.384 711.752 395.152 711.754V711.766Z" fill="#C9CBD4"/>
<path d="M321.387 701.832C321.092 701.829 320.805 701.744 320.556 701.587C320.307 701.43 320.107 701.206 319.979 700.941C319.85 700.676 319.798 700.381 319.828 700.088C319.858 699.795 319.969 699.517 320.148 699.283L377.794 625.671C377.942 625.483 378.13 625.331 378.346 625.226C378.561 625.121 378.797 625.066 379.036 625.066H464.153C464.573 625.066 464.976 625.232 465.273 625.529C465.57 625.826 465.736 626.229 465.736 626.649C465.736 627.069 465.57 627.471 465.273 627.768C464.976 628.065 464.573 628.232 464.153 628.232H379.796L322.629 701.231C322.481 701.418 322.292 701.57 322.077 701.674C321.862 701.778 321.626 701.832 321.387 701.832Z" fill="#C9CBD4"/>
<path d="M395.153 711.766C395.083 711.771 395.013 711.771 394.943 711.766L321.176 701.836C320.763 701.778 320.389 701.559 320.136 701.227C319.884 700.895 319.772 700.477 319.826 700.063C319.851 699.857 319.917 699.658 320.02 699.478C320.123 699.298 320.261 699.14 320.426 699.014C320.591 698.888 320.779 698.797 320.98 698.745C321.181 698.693 321.39 698.683 321.595 698.713L394.496 708.497L462.957 625.627C463.236 625.35 463.608 625.185 464.001 625.167C464.394 625.149 464.779 625.277 465.083 625.528C465.386 625.778 465.585 626.133 465.641 626.522C465.698 626.911 465.607 627.308 465.387 627.634L396.368 711.192C396.22 711.371 396.034 711.515 395.824 711.614C395.615 711.713 395.385 711.765 395.153 711.766Z" fill="#C9CBD4"/>
<path d="M500.237 613.05C500.237 623.582 483.277 629.439 479.438 630.63C479.225 630.697 478.995 630.684 478.792 630.593C478.588 630.502 478.425 630.339 478.334 630.135L476.066 625.228C476.011 625.109 475.981 624.98 475.979 624.85C475.977 624.719 476.003 624.589 476.056 624.469C476.108 624.349 476.186 624.242 476.283 624.154C476.381 624.067 476.496 624.001 476.62 623.961C480.214 622.826 492.275 618.607 492.121 613.197C491.943 606.987 484.998 604.205 472.137 603.876C471.895 603.872 471.664 603.774 471.494 603.603C471.323 603.431 471.226 603.2 471.223 602.958V597.319C471.223 597.195 471.248 597.073 471.296 596.96C471.344 596.846 471.414 596.743 471.502 596.656C471.59 596.57 471.694 596.502 471.808 596.456C471.923 596.41 472.045 596.387 472.168 596.389C487.206 596.578 500.237 601.419 500.237 613.05Z" fill="#C9CBD4"/>
<path d="M314.012 700.26C314.012 701.719 314.445 703.146 315.256 704.359C316.066 705.572 317.218 706.517 318.566 707.076C319.914 707.634 321.397 707.78 322.828 707.496C324.259 707.211 325.573 706.508 326.605 705.477C327.636 704.445 328.339 703.131 328.623 701.7C328.908 700.269 328.762 698.785 328.204 697.437C327.645 696.089 326.7 694.937 325.487 694.127C324.274 693.316 322.848 692.883 321.389 692.883C319.433 692.884 317.557 693.662 316.174 695.045C314.791 696.428 314.014 698.304 314.012 700.26Z" fill="#C9CBD4"/>
<path d="M487.013 700.261C487.014 701.172 487.285 702.064 487.793 702.821C488.3 703.579 489.02 704.17 489.863 704.518C490.706 704.866 491.633 704.957 492.527 704.778C493.421 704.599 494.242 704.159 494.886 703.514C495.531 702.869 495.969 702.047 496.146 701.152C496.323 700.258 496.231 699.331 495.881 698.489C495.532 697.646 494.94 696.927 494.182 696.421C493.423 695.915 492.532 695.645 491.62 695.646C491.014 695.646 490.415 695.765 489.855 695.997C489.296 696.229 488.788 696.569 488.36 696.998C487.932 697.427 487.593 697.935 487.362 698.495C487.131 699.055 487.012 699.655 487.013 700.261Z" fill="#C9CBD4"/>
<path d="M397.452 607.802H354.69C354.192 607.821 353.708 607.641 353.342 607.303C352.976 606.965 352.76 606.495 352.739 605.998V600.188C352.751 599.928 352.816 599.672 352.931 599.439C353.046 599.205 353.207 598.997 353.406 598.828C353.605 598.66 353.836 598.534 354.086 598.459C354.335 598.383 354.597 598.36 354.856 598.391L397.603 601.771C398.072 601.791 398.516 601.987 398.847 602.32C399.178 602.653 399.371 603.099 399.387 603.568V605.994C399.368 606.489 399.154 606.957 398.791 607.296C398.429 607.634 397.948 607.816 397.452 607.802Z" fill="#C9CBD4"/>
<path d="M410.855 710.19C410.854 705.91 409.157 701.804 406.137 698.772C403.116 695.74 399.017 694.028 394.737 694.011C391.904 693.913 325.326 691.585 322.319 691.585C318.678 691.585 313.261 693.806 313.261 699.92C313.261 704.274 316.169 707.301 321.903 708.872L322.889 709.142C341.567 714.322 385.96 726.365 394.693 726.365C398.98 726.358 403.088 724.651 406.117 721.619C409.147 718.587 410.851 714.477 410.855 710.19ZM394.682 697.166C398.136 697.166 401.448 698.538 403.891 700.981C406.333 703.423 407.705 706.736 407.705 710.19C407.705 713.645 406.333 716.957 403.891 719.4C401.448 721.843 398.136 723.215 394.682 723.215C388.896 723.215 362.362 716.807 323.72 706.122L322.722 705.845C318.409 704.658 316.391 702.79 316.391 699.936C316.391 695.84 320.253 694.756 322.295 694.756C325.271 694.74 393.934 697.138 394.682 697.166Z" fill="#5C6270"/>
<path d="M459.565 586.004L454.171 592.142C461.002 594.912 466.186 604.632 468.216 605.649C470.246 606.667 472.699 597.643 469.775 593.998C466.851 590.353 459.565 586.004 459.565 586.004Z" fill="#D06E31"/>
<path d="M385.955 561.106L421.495 590.357L454.174 592.126L459.568 586.004L426.24 581.634L394.819 550.789L385.955 561.106Z" fill="#D06E31"/>
<g style="mix-blend-mode:multiply" opacity="0.4">
<g style="mix-blend-mode:multiply" opacity="0.4">
<path d="M385.953 561.106C387.967 578.211 417.128 593.353 417.128 593.353L415.672 583.977L404.865 570.177L393.895 565.147L385.953 561.106Z" fill="#4141A2"/>
</g>
</g>
<path d="M385.955 561.106L419.512 590.357L454.174 592.917L459.568 584.812L426.24 576.881L392.172 540.487L385.955 561.106Z" fill="#B5DFEB"/>
<path d="M453.941 578.215H465.952L468.959 549.201H450.938L453.941 578.215Z" fill="#8A3C14"/>
<path d="M448.858 546.352H470.991V549.201H448.858V546.352Z" fill="#F6F6F9"/>
<path d="M451.528 542.679H468.655L469.656 546.352H450.527L451.528 542.679Z" fill="#F6F6F9"/>
<path d="M414.618 504.816C412.58 504.846 410.605 504.115 409.078 502.766C409.078 506.146 411.99 508.972 411.99 508.972L414.618 504.816Z" fill="#42210B"/>
<path d="M461.68 560.033C462.369 556.076 467.145 552.688 470.042 553.634C472.939 554.58 469.547 570.09 466.366 568.954C463.184 567.818 460.992 563.987 461.68 560.033Z" fill="#D06E31"/>
<defs>
<clipPath id="clip0_2507_21965">
<rect width="154.863" height="101.356" fill="white" transform="translate(10.0439 20.9006)"/>
</clipPath>
<clipPath id="clip1_2507_21965">
<rect width="586" height="268" fill="white" transform="translate(1028 487)"/>
</clipPath>
<clipPath id="clip2_2507_21965">
<rect width="98" height="133" fill="white" transform="translate(929 622)"/>
</clipPath>
<clipPath id="clip3_2507_21965">
<rect width="17.6468" height="23.9987" fill="white" transform="translate(1623 639)"/>
</clipPath>
</defs>
</svg>
