<?xml version="1.0" encoding="UTF-8"?>
<svg xmlns="http://www.w3.org/2000/svg" xmlns:xlink="http://www.w3.org/1999/xlink" viewBox="0 0 512 512" width="512px" height="512px">
<g id="surface71565673">
<path style=" stroke:none;fillRule:nonzero;fill:rgb(7.058824%,66.274512%,69.803923%);fill-opacity:1;" d="M 374.625 71 L 352 93.625 L 418.6875 160 L 264 160 C 215.488281 160 176 199.472656 176 248 C 176 296.527344 215.488281 336 264 336 L 272 336 L 272 304 L 264 304 C 233.121094 304 208 278.878906 208 248 C 208 217.121094 233.121094 192 264 192 L 418.75 192 L 352.125 258.625 L 374.75 281.25 L 480 176 Z M 80 80 L 80 432 L 432 432 L 432 272 L 400 304 L 400 400 L 112 400 L 112 112 L 285.65625 112 L 317.65625 80 Z M 80 80 "/>
</g>
</svg>
